<svg xmlns="http://www.w3.org/2000/svg" width="316.98975mm" height="317.17429mm" viewBox="0 0 316.98975 317.17429"><defs><clipPath id="a" clipPathUnits="userSpaceOnUse"><path d="M-273.275 4057.17h850.394V-279.838h-850.394Z"/></clipPath><clipPath id="b" clipPathUnits="userSpaceOnUse"><path d="M-239.26 4084.726h850.394V-252.282H-239.26Z"/></clipPath><clipPath id="c" clipPathUnits="userSpaceOnUse"><path d="M-263.07 4070.225h850.393V-266.783H-263.07Z"/></clipPath><clipPath id="d" clipPathUnits="userSpaceOnUse"><path d="M-252.866 4078.286h850.394V-258.722h-850.394Z"/></clipPath><clipPath id="e" clipPathUnits="userSpaceOnUse"><path d="M-171.23 4064.593h850.395V-272.415H-171.23Z"/></clipPath><clipPath id="f" clipPathUnits="userSpaceOnUse"><path d="M-269.874 4062.366H580.52V-274.642h-850.394Z"/></clipPath><clipPath id="g" clipPathUnits="userSpaceOnUse"><path d="M-259.67 4073.31h850.395V-263.7H-259.67Z"/></clipPath><clipPath id="h" clipPathUnits="userSpaceOnUse"><path d="M-191.639 4081.182h850.394V-255.826h-850.394Z"/></clipPath><clipPath id="i" clipPathUnits="userSpaceOnUse"><path d="M-256.268 4075.975h850.394V-261.033h-850.394Z"/></clipPath><clipPath id="j" clipPathUnits="userSpaceOnUse"><path d="M-167.827 4059.91h850.394V-277.098h-850.394Z"/></clipPath><clipPath id="k" clipPathUnits="userSpaceOnUse"><path d="M-184.835 4077.171h850.394V-259.837h-850.394Z"/></clipPath><clipPath id="l" clipPathUnits="userSpaceOnUse"><path d="M-178.032 4071.824h850.394V-265.184h-850.394Z"/></clipPath><clipPath id="m" clipPathUnits="userSpaceOnUse"><path d="M-266.473 4066.628h850.394V-270.38h-850.394Z"/></clipPath><clipPath id="n" clipPathUnits="userSpaceOnUse"><path d="M-188.236 4079.323h850.394V-257.685h-850.394Z"/></clipPath><clipPath id="o" clipPathUnits="userSpaceOnUse"><path d="M-174.63 4068.498h850.393V-268.51H-174.63Z"/></clipPath><clipPath id="p" clipPathUnits="userSpaceOnUse"><path d="M-249.465 4080.287H600.93V-256.72h-850.394Z"/></clipPath><clipPath id="q" clipPathUnits="userSpaceOnUse"><path d="M-181.434 4074.69H668.96V-262.318h-850.394Z"/></clipPath><clipPath id="r" clipPathUnits="userSpaceOnUse"><path d="M-236.57 4077.327h850.393V-259.681H-236.57Z"/></clipPath><clipPath id="s" clipPathUnits="userSpaceOnUse"><path d="M-202.832 4062.732h850.394V-274.276h-850.394Z"/></clipPath><clipPath id="t" clipPathUnits="userSpaceOnUse"><path d="M-208.907 4074.207h850.394V-262.801h-850.394Z"/></clipPath><clipPath id="u" clipPathUnits="userSpaceOnUse"><path d="M-217.193 4068.506h850.394V-268.502h-850.394Z"/></clipPath><clipPath id="v" clipPathUnits="userSpaceOnUse"><path d="M-224.377 4068.506h850.394V-268.502h-850.394Z"/></clipPath><clipPath id="w" clipPathUnits="userSpaceOnUse"><path d="M-229.916 4074.207h850.394V-262.801h-850.394Z"/></clipPath><clipPath id="x" clipPathUnits="userSpaceOnUse"><path d="M-205.03 4041.076h850.394V-295.932H-205.03Z"/></clipPath><clipPath id="y" clipPathUnits="userSpaceOnUse"><path d="M-225.224 4044.392H625.17V-292.616h-850.394Z"/></clipPath><clipPath id="z" clipPathUnits="userSpaceOnUse"><path d="M-179.063 4051.336H671.33V-285.672h-850.394Z"/></clipPath><clipPath id="A" clipPathUnits="userSpaceOnUse"><path d="M-256.649 4041.076h850.394V-295.932h-850.394Z"/></clipPath><clipPath id="B" clipPathUnits="userSpaceOnUse"><path d="M-221.091 4027.748h850.394V-309.26h-850.394Z"/></clipPath><clipPath id="C" clipPathUnits="userSpaceOnUse"><path d="M0 4337.008h850.394V0H0Z"/></clipPath><clipPath id="D" clipPathUnits="userSpaceOnUse"><path d="M0 4337.008h850.394V0H0Z"/></clipPath><clipPath id="E" clipPathUnits="userSpaceOnUse"><path d="M0 4337.008h850.394V0H0Z"/></clipPath><clipPath id="F" clipPathUnits="userSpaceOnUse"><path d="M-219.708 4029.443h850.394V-307.565h-850.394Z"/></clipPath><clipPath id="G" clipPathUnits="userSpaceOnUse"><path d="M-219.897 4025.365h850.394V-311.643h-850.394Z"/></clipPath><clipPath id="H" clipPathUnits="userSpaceOnUse"><path d="M-219.7 4089.047h850.393V-247.961H-219.7Z"/></clipPath><clipPath id="I" clipPathUnits="userSpaceOnUse"><path d="M-182.85 3985.767h850.393V-351.24H-182.85Z"/></clipPath><clipPath id="J" clipPathUnits="userSpaceOnUse"><path d="M0 4337.008h850.394V0H0Z"/></clipPath><clipPath id="K" clipPathUnits="userSpaceOnUse"><path d="M-230.48 3939.952h850.393V-397.056H-230.48Z"/></clipPath><clipPath id="L" clipPathUnits="userSpaceOnUse"><path d="M-226.608 3939.554h850.394V-397.454h-850.394Z"/></clipPath><clipPath id="M" clipPathUnits="userSpaceOnUse"><path d="M-238.134 3941.264H612.26V-395.744h-850.394Z"/></clipPath><clipPath id="N" clipPathUnits="userSpaceOnUse"><path d="M-234.313 3940.52H616.08V-396.486h-850.394Z"/></clipPath><clipPath id="O" clipPathUnits="userSpaceOnUse"><path d="M-245.639 3943.257h850.394V-393.751h-850.394Z"/></clipPath><clipPath id="P" clipPathUnits="userSpaceOnUse"><path d="M-241.9 3942.173h850.395V-394.835H-241.9Z"/></clipPath><clipPath id="Q" clipPathUnits="userSpaceOnUse"><path d="M-252.933 3945.914H597.46V-391.094h-850.394Z"/></clipPath><clipPath id="R" clipPathUnits="userSpaceOnUse"><path d="M-249.307 3944.5h850.394V-392.508h-850.394Z"/></clipPath><clipPath id="S" clipPathUnits="userSpaceOnUse"><path d="M-259.961 3949.215h850.394V-387.793h-850.394Z"/></clipPath><clipPath id="T" clipPathUnits="userSpaceOnUse"><path d="M-256.475 3947.481h850.394V-389.527h-850.394Z"/></clipPath><clipPath id="U" clipPathUnits="userSpaceOnUse"><path d="M-266.665 3953.132h850.394V-383.876h-850.394Z"/></clipPath><clipPath id="V" clipPathUnits="userSpaceOnUse"><path d="M-263.349 3951.093h850.394V-385.915h-850.394Z"/></clipPath><clipPath id="W" clipPathUnits="userSpaceOnUse"><path d="M-272.991 3957.634h850.394V-379.374h-850.394Z"/></clipPath><clipPath id="X" clipPathUnits="userSpaceOnUse"><path d="M-269.87 3955.307h850.393V-381.701H-269.87Z"/></clipPath><clipPath id="Y" clipPathUnits="userSpaceOnUse"><path d="M-278.888 3962.686h850.394V-374.322h-850.394Z"/></clipPath><clipPath id="Z" clipPathUnits="userSpaceOnUse"><path d="M-275.989 3960.087h850.394V-376.92h-850.394Z"/></clipPath><clipPath id="aa" clipPathUnits="userSpaceOnUse"><path d="M-284.308 3968.245h850.394V-368.763h-850.394Z"/></clipPath><clipPath id="ab" clipPathUnits="userSpaceOnUse"><path d="M-281.654 3965.397H568.74V-371.61h-850.394Z"/></clipPath><clipPath id="ac" clipPathUnits="userSpaceOnUse"><path d="M-289.208 3974.268h850.394V-362.74h-850.394Z"/></clipPath><clipPath id="ad" clipPathUnits="userSpaceOnUse"><path d="M-286.82 3971.194h850.394V-365.814H-286.82Z"/></clipPath><clipPath id="ae" clipPathUnits="userSpaceOnUse"><path d="M-293.548 3980.706h850.394V-356.302h-850.394Z"/></clipPath><clipPath id="af" clipPathUnits="userSpaceOnUse"><path d="M-291.444 3977.43H558.95V-359.578h-850.394Z"/></clipPath><clipPath id="ag" clipPathUnits="userSpaceOnUse"><path d="M-297.293 3987.507H553.1V-349.5h-850.394Z"/></clipPath><clipPath id="ah" clipPathUnits="userSpaceOnUse"><path d="M-295.493 3984.056h850.394V-352.952h-850.394Z"/></clipPath><clipPath id="ai" clipPathUnits="userSpaceOnUse"><path d="M-300.415 3994.616H549.98V-342.392h-850.394Z"/></clipPath><clipPath id="aj" clipPathUnits="userSpaceOnUse"><path d="M-298.93 3991.018h850.394V-345.99H-298.93Z"/></clipPath><clipPath id="ak" clipPathUnits="userSpaceOnUse"><path d="M-302.886 4001.978h850.394V-335.03h-850.394Z"/></clipPath><clipPath id="al" clipPathUnits="userSpaceOnUse"><path d="M-301.73 3998.26h850.395V-338.748H-301.73Z"/></clipPath><clipPath id="am" clipPathUnits="userSpaceOnUse"><path d="M-304.687 4009.53h850.394V-327.478h-850.394Z"/></clipPath><clipPath id="an" clipPathUnits="userSpaceOnUse"><path d="M-303.869 4005.724h850.394V-331.284h-850.394Z"/></clipPath><clipPath id="ao" clipPathUnits="userSpaceOnUse"><path d="M-305.804 4017.214H544.59V-319.794h-850.394Z"/></clipPath><clipPath id="ap" clipPathUnits="userSpaceOnUse"><path d="M-305.33 4013.35h850.393V-323.658H-305.33Z"/></clipPath><clipPath id="aq" clipPathUnits="userSpaceOnUse"><path d="M0 4337.008h850.394V0H0Z"/></clipPath><clipPath id="ar" clipPathUnits="userSpaceOnUse"><path d="M-306.103 4021.076h850.394V-315.932h-850.394Z"/></clipPath><clipPath id="as" clipPathUnits="userSpaceOnUse"><path d="M-305.956 4032.726h850.394V-304.282h-850.394Z"/></clipPath><clipPath id="at" clipPathUnits="userSpaceOnUse"><path d="M-306.18 4028.84h850.395V-308.168H-306.18Z"/></clipPath><clipPath id="au" clipPathUnits="userSpaceOnUse"><path d="M-304.988 4040.43h850.394V-296.578h-850.394Z"/></clipPath><clipPath id="av" clipPathUnits="userSpaceOnUse"><path d="M-305.56 4036.58h850.394V-300.43H-305.56Z"/></clipPath><clipPath id="aw" clipPathUnits="userSpaceOnUse"><path d="M-303.334 4048.016H547.06V-288.992h-850.394Z"/></clipPath><clipPath id="ax" clipPathUnits="userSpaceOnUse"><path d="M-304.248 4044.232h850.394V-292.776h-850.394Z"/></clipPath><clipPath id="ay" clipPathUnits="userSpaceOnUse"><path d="M-301.007 4055.424h850.394V-281.584h-850.394Z"/></clipPath><clipPath id="az" clipPathUnits="userSpaceOnUse"><path d="M-302.256 4051.737h850.394V-285.27h-850.394Z"/></clipPath><clipPath id="aA" clipPathUnits="userSpaceOnUse"><path d="M-298.025 4062.593h850.394V-274.415h-850.394Z"/></clipPath><clipPath id="aB" clipPathUnits="userSpaceOnUse"><path d="M-299.6 4059.033h850.395V-277.975H-299.6Z"/></clipPath><clipPath id="aC" clipPathUnits="userSpaceOnUse"><path d="M-294.412 4069.466h850.394V-267.542h-850.394Z"/></clipPath><clipPath id="aD" clipPathUnits="userSpaceOnUse"><path d="M-296.3 4066.061h850.394V-270.947H-296.3Z"/></clipPath><clipPath id="aE" clipPathUnits="userSpaceOnUse"><path d="M-290.197 4075.987h850.394V-261.021h-850.394Z"/></clipPath><clipPath id="aF" clipPathUnits="userSpaceOnUse"><path d="M-292.384 4072.766H558.01V-264.242h-850.394Z"/></clipPath><clipPath id="aG" clipPathUnits="userSpaceOnUse"><path d="M-285.416 4082.104h850.394V-254.904h-850.394Z"/></clipPath><clipPath id="aH" clipPathUnits="userSpaceOnUse"><path d="M-287.882 4079.091h850.394V-257.917h-850.394Z"/></clipPath><clipPath id="aI" clipPathUnits="userSpaceOnUse"><path d="M-280.106 4087.768h850.394V-249.24h-850.394Z"/></clipPath><clipPath id="aJ" clipPathUnits="userSpaceOnUse"><path d="M-282.832 4084.989h850.394V-252.02h-850.394Z"/></clipPath><clipPath id="aK" clipPathUnits="userSpaceOnUse"><path d="M-274.309 4092.933h850.394V-244.075h-850.394Z"/></clipPath><clipPath id="aL" clipPathUnits="userSpaceOnUse"><path d="M-277.271 4090.41h850.394V-246.6h-850.395Z"/></clipPath><clipPath id="aM" clipPathUnits="userSpaceOnUse"><path d="M-268.072 4097.558h850.394V-239.45h-850.394Z"/></clipPath><clipPath id="aN" clipPathUnits="userSpaceOnUse"><path d="M-271.25 4095.31h850.394V-241.698H-271.25Z"/></clipPath><clipPath id="aO" clipPathUnits="userSpaceOnUse"><path d="M-261.445 4101.605h850.394V-235.403h-850.394Z"/></clipPath><clipPath id="aP" clipPathUnits="userSpaceOnUse"><path d="M-264.812 4099.65h850.394V-237.356h-850.394Z"/></clipPath><clipPath id="aQ" clipPathUnits="userSpaceOnUse"><path d="M-254.483 4105.042H595.91V-231.966h-850.394Z"/></clipPath><clipPath id="aR" clipPathUnits="userSpaceOnUse"><path d="M-258.011 4103.398h850.394V-233.61h-850.394Z"/></clipPath><clipPath id="aS" clipPathUnits="userSpaceOnUse"><path d="M-247.241 4107.84h850.394V-229.166h-850.394Z"/></clipPath><clipPath id="aT" clipPathUnits="userSpaceOnUse"><path d="M-250.902 4106.52h850.394V-230.49h-850.394Z"/></clipPath><clipPath id="aU" clipPathUnits="userSpaceOnUse"><path d="M-239.777 4109.98h850.394V-227.03h-850.394Z"/></clipPath><clipPath id="aV" clipPathUnits="userSpaceOnUse"><path d="M-243.542 4108.991h850.394V-228.017h-850.394Z"/></clipPath><clipPath id="aW" clipPathUnits="userSpaceOnUse"><path d="M-232.151 4111.44h850.394V-225.568h-850.394Z"/></clipPath><clipPath id="aX" clipPathUnits="userSpaceOnUse"><path d="M-235.99 4110.793h850.394V-226.215H-235.99Z"/></clipPath><clipPath id="aY" clipPathUnits="userSpaceOnUse"><path d="M-224.425 4112.211h850.394V-224.797h-850.394Z"/></clipPath><clipPath id="aZ" clipPathUnits="userSpaceOnUse"><path d="M-228.306 4111.911h850.394V-225.097h-850.394Z"/></clipPath><clipPath id="ba" clipPathUnits="userSpaceOnUse"><path d="M-216.66 4112.287h850.393V-224.721H-216.66Z"/></clipPath><clipPath id="bb" clipPathUnits="userSpaceOnUse"><path d="M0 4337.008h850.394V0H0Z"/></clipPath><clipPath id="bc" clipPathUnits="userSpaceOnUse"><path d="M-208.921 4111.666h850.394V-225.342h-850.394Z"/></clipPath><clipPath id="bd" clipPathUnits="userSpaceOnUse"><path d="M-212.794 4112.064H637.6V-224.944h-850.394Z"/></clipPath><clipPath id="be" clipPathUnits="userSpaceOnUse"><path d="M-201.268 4110.354h850.394V-226.654h-850.394Z"/></clipPath><clipPath id="bf" clipPathUnits="userSpaceOnUse"><path d="M-205.09 4111.098h850.394V-225.91H-205.09Z"/></clipPath><clipPath id="bg" clipPathUnits="userSpaceOnUse"><path d="M-193.764 4108.361H656.63V-228.647h-850.394Z"/></clipPath><clipPath id="bh" clipPathUnits="userSpaceOnUse"><path d="M-197.503 4109.444H652.89V-227.564h-850.394Z"/></clipPath><clipPath id="bi" clipPathUnits="userSpaceOnUse"><path d="M-186.468 4105.704h850.394V-231.304h-850.394Z"/></clipPath><clipPath id="bj" clipPathUnits="userSpaceOnUse"><path d="M-190.095 4107.118h850.394V-229.89h-850.394Z"/></clipPath><clipPath id="bk" clipPathUnits="userSpaceOnUse"><path d="M-179.44 4102.404h850.394V-234.604H-179.44Z"/></clipPath><clipPath id="bl" clipPathUnits="userSpaceOnUse"><path d="M-182.926 4104.137h850.394V-232.871h-850.394Z"/></clipPath><clipPath id="bm" clipPathUnits="userSpaceOnUse"><path d="M-172.736 4098.487h850.394V-238.521h-850.394Z"/></clipPath><clipPath id="bn" clipPathUnits="userSpaceOnUse"><path d="M-176.053 4100.525h850.394V-236.483h-850.394Z"/></clipPath><clipPath id="bo" clipPathUnits="userSpaceOnUse"><path d="M-166.41 4093.984h850.393V-243.024H-166.41Z"/></clipPath><clipPath id="bp" clipPathUnits="userSpaceOnUse"><path d="M-169.531 4096.312h850.394V-240.696h-850.394Z"/></clipPath><clipPath id="bq" clipPathUnits="userSpaceOnUse"><path d="M-160.515 4088.933H689.88V-248.075h-850.394Z"/></clipPath><clipPath id="br" clipPathUnits="userSpaceOnUse"><path d="M-163.413 4091.53h850.394V-245.476h-850.394Z"/></clipPath><clipPath id="bs" clipPathUnits="userSpaceOnUse"><path d="M-155.095 4083.373H695.3V-253.635h-850.394Z"/></clipPath><clipPath id="bt" clipPathUnits="userSpaceOnUse"><path d="M-157.75 4086.22h850.395V-250.786H-157.75Z"/></clipPath><clipPath id="bu" clipPathUnits="userSpaceOnUse"><path d="M-150.195 4077.35H700.2V-259.658h-850.394Z"/></clipPath><clipPath id="bv" clipPathUnits="userSpaceOnUse"><path d="M-152.583 4080.424H697.81V-256.584h-850.394Z"/></clipPath><clipPath id="bw" clipPathUnits="userSpaceOnUse"><path d="M-145.854 4070.912H704.54V-266.096h-850.394Z"/></clipPath><clipPath id="bx" clipPathUnits="userSpaceOnUse"><path d="M-147.958 4074.188h850.394V-262.82h-850.394Z"/></clipPath><clipPath id="by" clipPathUnits="userSpaceOnUse"><path d="M-142.108 4064.11h850.394V-272.896h-850.394Z"/></clipPath><clipPath id="bz" clipPathUnits="userSpaceOnUse"><path d="M-143.91 4067.561h850.395V-269.447H-143.91Z"/></clipPath><clipPath id="bA" clipPathUnits="userSpaceOnUse"><path d="M-138.988 4057.001h850.394V-280.007h-850.394Z"/></clipPath><clipPath id="bB" clipPathUnits="userSpaceOnUse"><path d="M-140.472 4060.6h850.394V-276.408h-850.394Z"/></clipPath><clipPath id="bC" clipPathUnits="userSpaceOnUse"><path d="M-136.517 4049.64h850.394V-287.366h-850.394Z"/></clipPath><clipPath id="bD" clipPathUnits="userSpaceOnUse"><path d="M-137.672 4053.358h850.394V-283.65h-850.394Z"/></clipPath><clipPath id="bE" clipPathUnits="userSpaceOnUse"><path d="M-134.715 4042.088H715.68V-294.92h-850.394Z"/></clipPath><clipPath id="bF" clipPathUnits="userSpaceOnUse"><path d="M-135.533 4045.894h850.394V-291.114h-850.394Z"/></clipPath><clipPath id="bG" clipPathUnits="userSpaceOnUse"><path d="M-133.597 4034.405h850.394V-302.603h-850.394Z"/></clipPath><clipPath id="bH" clipPathUnits="userSpaceOnUse"><path d="M-134.072 4038.268h850.394V-298.74h-850.394Z"/></clipPath><clipPath id="bI" clipPathUnits="userSpaceOnUse"><path d="M0 4337.008h850.394V0H0Z"/></clipPath><clipPath id="bJ" clipPathUnits="userSpaceOnUse"><path d="M-133.3 4030.542h850.394V-306.466H-133.3Z"/></clipPath><clipPath id="bK" clipPathUnits="userSpaceOnUse"><path d="M-133.447 4018.892h850.394V-318.116h-850.394Z"/></clipPath><clipPath id="bL" clipPathUnits="userSpaceOnUse"><path d="M-133.222 4022.778h850.394V-314.23h-850.394Z"/></clipPath><clipPath id="bM" clipPathUnits="userSpaceOnUse"><path d="M-134.414 4011.188H715.98V-325.82h-850.394Z"/></clipPath><clipPath id="bN" clipPathUnits="userSpaceOnUse"><path d="M-133.843 4015.039H716.55V-321.97h-850.394Z"/></clipPath><clipPath id="bO" clipPathUnits="userSpaceOnUse"><path d="M-136.067 4003.602h850.394V-333.406h-850.394Z"/></clipPath><clipPath id="bP" clipPathUnits="userSpaceOnUse"><path d="M-135.153 4007.386H715.24V-329.622h-850.394Z"/></clipPath><clipPath id="bQ" clipPathUnits="userSpaceOnUse"><path d="M-138.396 3996.195h850.394V-340.813h-850.394Z"/></clipPath><clipPath id="bR" clipPathUnits="userSpaceOnUse"><path d="M-137.146 3999.88h850.394V-337.126h-850.394Z"/></clipPath><clipPath id="bS" clipPathUnits="userSpaceOnUse"><path d="M-141.377 3989.025h850.394V-347.983h-850.395Z"/></clipPath><clipPath id="bT" clipPathUnits="userSpaceOnUse"><path d="M-139.802 3992.585h850.394V-344.423h-850.394Z"/></clipPath><clipPath id="bU" clipPathUnits="userSpaceOnUse"><path d="M-144.99 3982.152h850.395V-354.856H-144.99Z"/></clipPath><clipPath id="bV" clipPathUnits="userSpaceOnUse"><path d="M-143.102 3985.557h850.394V-351.45h-850.394Z"/></clipPath><clipPath id="bW" clipPathUnits="userSpaceOnUse"><path d="M-149.204 3975.632H701.19V-361.376h-850.394Z"/></clipPath><clipPath id="bX" clipPathUnits="userSpaceOnUse"><path d="M-147.018 3978.853h850.394V-358.155h-850.394Z"/></clipPath><clipPath id="bY" clipPathUnits="userSpaceOnUse"><path d="M-153.986 3969.514h850.394V-367.494h-850.394Z"/></clipPath><clipPath id="bZ" clipPathUnits="userSpaceOnUse"><path d="M-151.52 3972.527h850.394V-364.481H-151.52Z"/></clipPath><clipPath id="ca" clipPathUnits="userSpaceOnUse"><path d="M-159.297 3963.85h850.394V-373.158h-850.394Z"/></clipPath><clipPath id="cb" clipPathUnits="userSpaceOnUse"><path d="M-156.571 3966.63h850.394V-370.38h-850.394Z"/></clipPath><clipPath id="cc" clipPathUnits="userSpaceOnUse"><path d="M-165.094 3958.685H685.3V-378.323h-850.394Z"/></clipPath><clipPath id="cd" clipPathUnits="userSpaceOnUse"><path d="M-162.13 3961.209h850.394V-375.8H-162.13Z"/></clipPath><clipPath id="ce" clipPathUnits="userSpaceOnUse"><path d="M-171.33 3954.06h850.393V-382.948H-171.33Z"/></clipPath><clipPath id="cf" clipPathUnits="userSpaceOnUse"><path d="M-168.152 3956.308h850.394V-380.7h-850.394Z"/></clipPath><clipPath id="cg" clipPathUnits="userSpaceOnUse"><path d="M-177.956 3950.013h850.394V-386.995h-850.394Z"/></clipPath><clipPath id="ch" clipPathUnits="userSpaceOnUse"><path d="M-174.59 3951.967h850.394V-385.04H-174.59Z"/></clipPath><clipPath id="ci" clipPathUnits="userSpaceOnUse"><path d="M-184.919 3946.576h850.394V-390.432h-850.394Z"/></clipPath><clipPath id="cj" clipPathUnits="userSpaceOnUse"><path d="M-181.39 3948.22h850.394V-388.786H-181.39Z"/></clipPath><clipPath id="ck" clipPathUnits="userSpaceOnUse"><path d="M-192.162 3943.777h850.394V-393.23h-850.394Z"/></clipPath><clipPath id="cl" clipPathUnits="userSpaceOnUse"><path d="M-188.5 3945.1h850.394V-391.91H-188.5Z"/></clipPath><clipPath id="cm" clipPathUnits="userSpaceOnUse"><path d="M-199.625 3941.639h850.394V-395.37h-850.394Z"/></clipPath><clipPath id="cn" clipPathUnits="userSpaceOnUse"><path d="M-195.86 3942.627h850.393V-394.381H-195.86Z"/></clipPath><clipPath id="co" clipPathUnits="userSpaceOnUse"><path d="M-207.252 3940.178h850.394V-396.83h-850.394Z"/></clipPath><clipPath id="cp" clipPathUnits="userSpaceOnUse"><path d="M-203.413 3940.825h850.394V-396.183h-850.394Z"/></clipPath><clipPath id="cq" clipPathUnits="userSpaceOnUse"><path d="M-214.978 3939.407h850.394V-397.601h-850.394Z"/></clipPath><clipPath id="cr" clipPathUnits="userSpaceOnUse"><path d="M-211.096 3939.707h850.394V-397.3h-850.394Z"/></clipPath><clipPath id="cs" clipPathUnits="userSpaceOnUse"><path d="M-222.742 3939.332h850.394V-397.676h-850.394Z"/></clipPath><clipPath id="ct" clipPathUnits="userSpaceOnUse"><path d="M0 4337.008h850.394V0H0Z"/></clipPath><clipPath id="cu" clipPathUnits="userSpaceOnUse"><path d="M-203.3 4000.341h850.395V-336.667H-203.3Z"/></clipPath><clipPath id="cv" clipPathUnits="userSpaceOnUse"><path d="M-185.685 3997.712h850.394V-339.296h-850.394Z"/></clipPath><clipPath id="cw" clipPathUnits="userSpaceOnUse"><path d="M-216.905 3995.043H633.49V-341.965h-850.394Z"/></clipPath><clipPath id="cx" clipPathUnits="userSpaceOnUse"><path d="M-244.499 4005.114h850.394V-331.894h-850.394Z"/></clipPath><clipPath id="cy" clipPathUnits="userSpaceOnUse"><path d="M-247.645 4001.489H602.75V-335.52h-850.394Z"/></clipPath><clipPath id="cz" clipPathUnits="userSpaceOnUse"><path d="M-222.041 4004.157h850.394V-332.85h-850.394Z"/></clipPath><clipPath id="cA" clipPathUnits="userSpaceOnUse"><path d="M-230.059 3996h850.394V-341.008h-850.394Z"/></clipPath><clipPath id="cB" clipPathUnits="userSpaceOnUse"><path d="M-151.267 4012.578h850.394V-324.43h-850.394Z"/></clipPath><clipPath id="cC" clipPathUnits="userSpaceOnUse"><path d="M-153.447 3991.689h850.394V-345.32h-850.394Z"/></clipPath><clipPath id="cD" clipPathUnits="userSpaceOnUse"><path d="M-182.948 3966.638h850.394V-370.37h-850.394Z"/></clipPath><clipPath id="cE" clipPathUnits="userSpaceOnUse"><path d="M-227.773 3956.622H622.62V-380.386h-850.394Z"/></clipPath><clipPath id="cF" clipPathUnits="userSpaceOnUse"><path d="M-292.65 4023.817h850.394V-313.19H-292.65Z"/></clipPath><clipPath id="cG" clipPathUnits="userSpaceOnUse"><path d="M-250.385 3953.892H600.01V-383.116h-850.394Z"/></clipPath><clipPath id="cH" clipPathUnits="userSpaceOnUse"><path d="M-142.665 4028.203h850.394V-308.805h-850.394Z"/></clipPath><clipPath id="cI" clipPathUnits="userSpaceOnUse"><path d="M-235.231 3950.317h850.394V-386.69h-850.394Z"/></clipPath><clipPath id="cJ" clipPathUnits="userSpaceOnUse"><path d="M-203.544 3958.006H646.85V-379.002h-850.394Z"/></clipPath><clipPath id="cK" clipPathUnits="userSpaceOnUse"><path d="M-288.933 4017.734h850.394V-319.274h-850.394Z"/></clipPath><clipPath id="cL" clipPathUnits="userSpaceOnUse"><path d="M-272.022 3967.702h850.394V-369.306h-850.394Z"/></clipPath><clipPath id="cM" clipPathUnits="userSpaceOnUse"><path d="M-148.48 4005.975h850.393V-331.033H-148.48Z"/></clipPath><clipPath id="cN" clipPathUnits="userSpaceOnUse"><path d="M-165.65 3977.02h850.394V-359.986H-165.65Z"/></clipPath><clipPath id="cO" clipPathUnits="userSpaceOnUse"><path d="M-293.036 4002.267h850.394V-334.741h-850.394Z"/></clipPath><clipPath id="cP" clipPathUnits="userSpaceOnUse"><path d="M-208.585 3949.595h850.394V-387.413h-850.394Z"/></clipPath><clipPath id="cQ" clipPathUnits="userSpaceOnUse"><path d="M-286.323 3984.81h850.394V-352.2h-850.394Z"/></clipPath><clipPath id="cR" clipPathUnits="userSpaceOnUse"><path d="M-175.039 3967.521h850.394V-369.487h-850.394Z"/></clipPath><clipPath id="cS" clipPathUnits="userSpaceOnUse"><path d="M-260.239 3967.838h850.394V-369.17h-850.394Z"/></clipPath><clipPath id="cT" clipPathUnits="userSpaceOnUse"><path d="M-283.396 3995.037h850.394V-341.97h-850.394Z"/></clipPath><clipPath id="cU" clipPathUnits="userSpaceOnUse"><path d="M-221.644 3951.358H628.75V-385.65h-850.394Z"/></clipPath><clipPath id="cV" clipPathUnits="userSpaceOnUse"><path d="M-191.95 3962.015h850.393V-374.993H-191.95Z"/></clipPath><clipPath id="cW" clipPathUnits="userSpaceOnUse"><path d="M-148.061 4037.366h850.394V-299.642h-850.394Z"/></clipPath><clipPath id="cX" clipPathUnits="userSpaceOnUse"><path d="M-149.346 4043.682h850.394V-293.326h-850.394Z"/></clipPath><clipPath id="cY" clipPathUnits="userSpaceOnUse"><path d="M-149.848 4048.533h850.394V-288.475h-850.394Z"/></clipPath><clipPath id="cZ" clipPathUnits="userSpaceOnUse"><path d="M-292.67 4036.037h850.395V-300.97H-292.67Z"/></clipPath><clipPath id="da" clipPathUnits="userSpaceOnUse"><path d="M-291.384 4042.353H559.01V-294.655h-850.394Z"/></clipPath><clipPath id="db" clipPathUnits="userSpaceOnUse"><path d="M-289.554 4048.533H560.84V-288.475h-850.394Z"/></clipPath><clipPath id="dc" clipPathUnits="userSpaceOnUse"><path d="M-200.11 4091.612h850.394V-245.396H-200.11Z"/></clipPath><clipPath id="dd" clipPathUnits="userSpaceOnUse"><path d="M-195.528 4099.637h850.394V-237.37h-850.394Z"/></clipPath><clipPath id="de" clipPathUnits="userSpaceOnUse"><path d="M-179.267 4081.298h850.394V-255.71h-850.394Z"/></clipPath><clipPath id="df" clipPathUnits="userSpaceOnUse"><path d="M-288.37 4062.22h850.394V-274.79H-288.37Z"/></clipPath><clipPath id="dg" clipPathUnits="userSpaceOnUse"><path d="M-247.364 4088.58H603.03V-248.428h-850.394Z"/></clipPath><clipPath id="dh" clipPathUnits="userSpaceOnUse"><path d="M-223.385 4101.24h850.394V-235.77h-850.394Z"/></clipPath><clipPath id="di" clipPathUnits="userSpaceOnUse"><path d="M-224.245 4094.235h850.394V-242.773h-850.394Z"/></clipPath><clipPath id="dj" clipPathUnits="userSpaceOnUse"><path d="M-162.862 4064.017h850.394V-272.991h-850.394Z"/></clipPath><clipPath id="dk" clipPathUnits="userSpaceOnUse"><path d="M-154.12 4063.431h850.393V-273.577H-154.12Z"/></clipPath><clipPath id="dl" clipPathUnits="userSpaceOnUse"><path d="M-218.003 4096.139h850.394V-240.87h-850.394Z"/></clipPath><clipPath id="dm" clipPathUnits="userSpaceOnUse"><path d="M-271.23 4082.234h850.395V-254.774H-271.23Z"/></clipPath><clipPath id="dn" clipPathUnits="userSpaceOnUse"><path d="M-269.649 4081.62h850.394V-255.386h-850.394Z"/></clipPath><clipPath id="do" clipPathUnits="userSpaceOnUse"><path d="M-264.403 4083.71H585.99V-253.296h-850.394Z"/></clipPath><clipPath id="dp" clipPathUnits="userSpaceOnUse"><path d="M-156.46 4062.571h850.394V-274.437H-156.46Z"/></clipPath><clipPath id="dq" clipPathUnits="userSpaceOnUse"><path d="M-211.134 3980.951H639.26V-356.057h-850.394Z"/></clipPath><clipPath id="dr" clipPathUnits="userSpaceOnUse"><path d="M-219.825 3975.79h850.394V-361.218h-850.394Z"/></clipPath><clipPath id="ds" clipPathUnits="userSpaceOnUse"><path d="M-222.478 3983.098h850.394V-353.91h-850.394Z"/></clipPath><clipPath id="dt" clipPathUnits="userSpaceOnUse"><path d="M-219.825 3966.504h850.394V-370.504h-850.394Z"/></clipPath><clipPath id="du" clipPathUnits="userSpaceOnUse"><path d="M-219.577 3972.87h850.394V-364.138h-850.394Z"/></clipPath><clipPath id="dv" clipPathUnits="userSpaceOnUse"><path d="M-219.577 3985.506h850.394V-351.502h-850.394Z"/></clipPath><clipPath id="dw" clipPathUnits="userSpaceOnUse"><path d="M-217.366 3968.062h850.394V-368.946h-850.394Z"/></clipPath><clipPath id="dx" clipPathUnits="userSpaceOnUse"><path d="M-225.412 3970.01h850.394V-366.996h-850.394Z"/></clipPath><clipPath id="dy" clipPathUnits="userSpaceOnUse"><path d="M-211.412 3980.648h850.394V-356.36h-850.394Z"/></clipPath><clipPath id="dz" clipPathUnits="userSpaceOnUse"><path d="M-216.925 3977.465h850.394V-359.543h-850.394Z"/></clipPath><clipPath id="dA" clipPathUnits="userSpaceOnUse"><path d="M-219.577 3979.14h850.394V-357.868h-850.394Z"/></clipPath><clipPath id="dB" clipPathUnits="userSpaceOnUse"><path d="M-227.747 3974.057h850.394V-362.95h-850.394Z"/></clipPath><clipPath id="dC" clipPathUnits="userSpaceOnUse"><path d="M-216.801 3977.823h850.394V-359.185h-850.394Z"/></clipPath><clipPath id="dD" clipPathUnits="userSpaceOnUse"><path d="M-222.478 3974.545h850.394V-362.463h-850.394Z"/></clipPath><clipPath id="dE" clipPathUnits="userSpaceOnUse"><path d="M-219.825 3979.14h850.394V-357.868h-850.394Z"/></clipPath><clipPath id="dF" clipPathUnits="userSpaceOnUse"><path d="M-222.602 3977.823h850.394V-359.185h-850.394Z"/></clipPath><clipPath id="dG" clipPathUnits="userSpaceOnUse"><path d="M-216.553 3974.33H633.84V-362.678h-850.394Z"/></clipPath><clipPath id="dH" clipPathUnits="userSpaceOnUse"><path d="M-227.747 3977.953h850.394V-359.055h-850.394Z"/></clipPath><clipPath id="dI" clipPathUnits="userSpaceOnUse"><path d="M-213.991 3970.01h850.394V-366.996h-850.394Z"/></clipPath></defs><g style="stroke-width:.205089"><path d="M0 0v1.313h-1.7V-2.74Q-.815-1.392 0 0" clip-path="url(#a)" style="fill:#88abda;fill-opacity:1;fill-rule:nonzero;stroke:none;stroke-width:.205089" transform="matrix(1.72012 0 0 -1.72012 250.649 212.53)"/><path d="M0 0v6.11a9 9 0 0 1 1.701.733V.592q.854.312 1.701.649v6.833a8.9 8.9 0 0 1 1.7 2.123v-8.25q.856.37 1.701.767v26.155H5.102v-9.673a8.9 8.9 0 0 1-1.7 2.123v7.55H1.701v-6.318A9 9 0 0 1 0 23.283v5.586h-1.701V23.64a9 9 0 0 1-.988.054h-.713v5.175h-1.7v-5.175h-1.701v5.175h-1.701v-5.175h-1.7v5.175h-1.702v-5.175h-1.7v5.175h-1.701v-5.175h-1.702v5.175h-1.699v-5.175h-1.701v5.175h-1.702v-5.175h-1.7v5.175h-1.701v-5.175h-1.701v5.175h-1.7v-5.175h-1.702v5.175h-1.7v-5.175h-1.7v5.175h-1.702v-5.175h-.711q-.496 0-.989-.054v5.229h-1.7v-5.586a9 9 0 0 1-1.702-.732v6.318h-1.7v-7.55a8.9 8.9 0 0 1-1.702-2.123v9.673h-1.7V2.714a61 61 0 0 1 1.7-.767v8.25a8.9 8.9 0 0 1 1.702-2.123V1.241q.845-.337 1.7-.649v6.251a9 9 0 0 1 1.702-.733V0a60 60 0 0 1 1.7-.538v6.291q.493-.054.989-.054h.711v-6.721a60 60 0 0 1 1.702-.433v7.154h1.7v-7.535q.849-.18 1.7-.333v7.868h1.702v-8.151a61 61 0 0 1 1.7-.236v8.387h1.701v-8.574a57 57 0 0 1 1.701-.14v8.714h1.7v-8.808a65 65 0 0 1 1.702-.047v8.855h1.701v-8.855q.85.012 1.699.047v8.808h1.702v-8.714q.851.057 1.701.14v8.574h1.7v-8.387q.853.106 1.702.236v8.151h1.7v-7.868q.854.154 1.701.333v7.535h1.701v-7.154q.852.204 1.7.433v6.721h.713q.496 0 .988.054V-.538Q-.847-.282 0 0" clip-path="url(#b)" style="fill:#88abda;fill-opacity:1;fill-rule:nonzero;stroke:none;stroke-width:.205089" transform="matrix(1.72012 0 0 -1.72012 192.138 259.93)"/><path d="M0 0v14.37h-1.7V-1.599A63 63 0 0 1 0 0" clip-path="url(#c)" style="fill:#88abda;fill-opacity:1;fill-rule:nonzero;stroke:none;stroke-width:.205089" transform="matrix(1.72012 0 0 -1.72012 233.095 234.988)"/><path d="M0 0v22.43h-1.7V-1.037A62 62 0 0 1 0 0" clip-path="url(#d)" style="fill:#88abda;fill-opacity:1;fill-rule:nonzero;stroke:none;stroke-width:.205089" transform="matrix(1.72012 0 0 -1.72012 215.542 248.853)"/><path d="M0 0v8.737h-1.701v-6.51A60 60 0 0 1 0 0" clip-path="url(#e)" style="fill:#88abda;fill-opacity:1;fill-rule:nonzero;stroke:none;stroke-width:.205089" transform="matrix(1.72012 0 0 -1.72012 75.117 225.3)"/><path d="M0 0v6.509h-1.701v-8.736Q-.825-1.132 0 0" clip-path="url(#f)" style="fill:#88abda;fill-opacity:1;fill-rule:nonzero;stroke:none;stroke-width:.205089" transform="matrix(1.72012 0 0 -1.72012 244.798 221.469)"/><path d="M0 0v17.453h-1.701V-1.38Q-.839-.706 0 0" clip-path="url(#g)" style="fill:#88abda;fill-opacity:1;fill-rule:nonzero;stroke:none;stroke-width:.205089" transform="matrix(1.72012 0 0 -1.72012 227.245 240.293)"/><path d="M0 0v25.326h-1.701V.895A63 63 0 0 1 0 0" clip-path="url(#h)" style="fill:#88abda;fill-opacity:1;fill-rule:nonzero;stroke:none;stroke-width:.205089" transform="matrix(1.72012 0 0 -1.72012 110.224 253.835)"/><path d="M0 0v20.118h-1.701V-1.196Q-.841-.612 0 0" clip-path="url(#i)" style="fill:#88abda;fill-opacity:1;fill-rule:nonzero;stroke:none;stroke-width:.205089" transform="matrix(1.72012 0 0 -1.72012 221.394 244.878)"/><path d="M0 0v4.053h-1.701V2.74A63 63 0 0 1 0 0" clip-path="url(#j)" style="fill:#88abda;fill-opacity:1;fill-rule:nonzero;stroke:none;stroke-width:.205089" transform="matrix(1.72012 0 0 -1.72012 69.265 217.243)"/><path d="M0 0v21.315h-1.701V1.196Q-.861.584 0 0" clip-path="url(#k)" style="fill:#88abda;fill-opacity:1;fill-rule:nonzero;stroke:none;stroke-width:.205089" transform="matrix(1.72012 0 0 -1.72012 98.521 246.936)"/><path d="M0 0v15.968h-1.7V1.599A60 60 0 0 1 0 0" clip-path="url(#l)" style="fill:#88abda;fill-opacity:1;fill-rule:nonzero;stroke:none;stroke-width:.205089" transform="matrix(1.72012 0 0 -1.72012 86.818 237.738)"/><path d="M0 0v10.772h-1.701V-1.871A66 66 0 0 1 0 0" clip-path="url(#m)" style="fill:#88abda;fill-opacity:1;fill-rule:nonzero;stroke:none;stroke-width:.205089" transform="matrix(1.72012 0 0 -1.72012 238.948 228.8)"/><path d="M0 0v23.467h-1.701V1.037Q-.858.505 0 0" clip-path="url(#n)" style="fill:#88abda;fill-opacity:1;fill-rule:nonzero;stroke:none;stroke-width:.205089" transform="matrix(1.72012 0 0 -1.72012 104.372 250.636)"/><path d="M0 0v12.642h-1.701V1.871A63 63 0 0 1 0 0" clip-path="url(#o)" style="fill:#88abda;fill-opacity:1;fill-rule:nonzero;stroke:none;stroke-width:.205089" transform="matrix(1.72012 0 0 -1.72012 80.968 232.017)"/><path d="M0 0v24.431h-1.701V-.895Q-.844-.46 0 0" clip-path="url(#p)" style="fill:#88abda;fill-opacity:1;fill-rule:nonzero;stroke:none;stroke-width:.205089" transform="matrix(1.72012 0 0 -1.72012 209.691 252.295)"/><path d="M0 0v18.833h-1.701V1.38Q-.862.675 0 0" clip-path="url(#q)" style="fill:#88abda;fill-opacity:1;fill-rule:nonzero;stroke:none;stroke-width:.205089" transform="matrix(1.72012 0 0 -1.72012 92.67 242.667)"/><path d="M0 0h-33.738a7.298 7.298 0 0 0 0 14.594H0A7.298 7.298 0 1 0 0 0m0 16.295h-33.738a8.998 8.998 0 0 1 0-17.996H0a9 9 0 0 1 8.997 8.999A9 9 0 0 1 0 16.295" clip-path="url(#r)" style="fill:#008fd3;fill-opacity:1;fill-rule:nonzero;stroke:none;stroke-width:.205089" transform="matrix(1.72012 0 0 -1.72012 187.512 247.203)"/><path d="M0 0a7.298 7.298 0 0 1 0-14.594h33.738a7.298 7.298 0 1 1 0 14.594z" clip-path="url(#s)" style="fill:#fff;fill-opacity:1;fill-rule:nonzero;stroke:none;stroke-width:.205089" transform="matrix(1.72012 0 0 -1.72012 129.477 222.099)"/><path d="M0 0v6.686l-1.899-1.089-.719 1.205L.175 8.354h1.309V0Z" clip-path="url(#t)" style="fill:#1157a7;fill-opacity:1;fill-rule:nonzero;stroke:none;stroke-width:.205089" transform="matrix(1.72012 0 0 -1.72012 139.928 241.836)"/><path d="M0 0q0 .684-.372 1.061-.37.376-1.089.376-.764 0-1.152-.376-.389-.377-.389-1.072v-.127q0-.732.359-1.083.36-.355 1.124-.355.394 0 .684.111.29.11.475.301.186.19.273.446Q0-.463 0-.173Zm-3.5-4.02q.395-.232.822-.348.429-.115.951-.115.404 0 .718.115.313.116.534.388.219.273.34.718.123.448.158 1.119a1.87 1.87 0 0 0-.817-.545 3.1 3.1 0 0 0-1.061-.184q-.614 0-1.095.19a2.3 2.3 0 0 0-.817.539 2.3 2.3 0 0 0-.515.84 3.2 3.2 0 0 0-.179 1.107v.231q-.001.579.202 1.083.203.505.584.875.384.372.935.58.55.208 1.245.208.799 0 1.367-.249.567-.25.926-.712.36-.463.528-1.119.168-.654.169-1.454v-.533q0-1.379-.239-2.264-.236-.887-.671-1.392a2.27 2.27 0 0 0-1.049-.695 4.6 4.6 0 0 0-1.356-.191q-.567 0-1.159.134a3.2 3.2 0 0 0-1.066.445z" clip-path="url(#u)" style="fill:#1157a7;fill-opacity:1;fill-rule:nonzero;stroke:none;stroke-width:.205089" transform="matrix(1.72012 0 0 -1.72012 154.18 232.03)"/><path d="M0 0q0 .684-.372 1.061-.37.376-1.089.376-.764 0-1.152-.376-.388-.377-.388-1.072v-.127q0-.732.359-1.083.359-.355 1.124-.355.394 0 .683.111.29.11.476.301.184.19.272.446Q0-.463 0-.173Zm-3.5-4.02q.395-.232.823-.348.429-.115.95-.115.406 0 .718.115.314.116.534.388.218.273.342.718.12.448.156 1.119a1.86 1.86 0 0 0-.817-.545 3.1 3.1 0 0 0-1.06-.184q-.615 0-1.096.19-.48.192-.816.539a2.3 2.3 0 0 0-.515.84q-.18.493-.18 1.107v.231q0 .579.203 1.083.201.505.584.875.383.372.934.58.55.208 1.245.208.799 0 1.368-.249.567-.25.926-.712.359-.463.529-1.119.166-.654.167-1.454v-.533q0-1.379-.238-2.264-.237-.887-.673-1.392a2.25 2.25 0 0 0-1.048-.695 4.6 4.6 0 0 0-1.356-.191 5.2 5.2 0 0 0-1.158.134q-.59.133-1.067.445z" clip-path="url(#v)" style="fill:#1157a7;fill-opacity:1;fill-rule:nonzero;stroke:none;stroke-width:.205089" transform="matrix(1.72012 0 0 -1.72012 166.537 232.03)"/><path d="M0 0h-1.564l3.209 7.102h-4.414v1.252h5.966V7.218Z" clip-path="url(#w)" style="fill:#1157a7;fill-opacity:1;fill-rule:nonzero;stroke:none;stroke-width:.205089" transform="matrix(1.72012 0 0 -1.72012 176.064 241.836)"/><path d="M0 0v.44q-1.773.004-3.545.005v-4.858h-5.057V.445L-12.146.44V0l-2.589-.003V-13.08h6.133v5.065h5.057v-5.065h6.134V-.003z" clip-path="url(#x)" style="fill:#008fd3;fill-opacity:1;fill-rule:nonzero;stroke:none;stroke-width:.205089" transform="matrix(1.72012 0 0 -1.72012 133.258 184.847)"/><path d="M0 0v1.45h-1.021l-.596.539h-1.215v-4.847h-7.612v-6.905h2.016v4.24h5.596v-4.24H10.91V0Z" clip-path="url(#y)" style="fill:#008fd3;fill-opacity:1;fill-rule:nonzero;stroke:none;stroke-width:.205089" transform="matrix(1.72012 0 0 -1.72012 167.995 190.552)"/><path d="M0 0c.318.28.52.669.564 1.09l3.66 1.83q-.16.315-.316.629l-4.154-.831a1.69 1.69 0 0 1-1.585.086l-9.819 3.437q-.104-.312-.209-.623l9.057-4.528c.045-.421.247-.81.564-1.09h-1.701v-2.82h8.46V0Z" clip-path="url(#z)" style="fill:#008fd3;fill-opacity:1;fill-rule:nonzero;stroke:none;stroke-width:.205089" transform="matrix(1.72012 0 0 -1.72012 88.593 202.495)"/><path d="M0 0v.44q-1.772.004-3.545.005v-4.858h-5.057V.445L-12.146.44V0l-2.589-.003V-13.08h6.133v5.065h5.057v-5.065h6.134V-.003z" clip-path="url(#A)" style="fill:#008fd3;fill-opacity:1;fill-rule:nonzero;stroke:none;stroke-width:.205089" transform="matrix(1.72012 0 0 -1.72012 222.048 184.847)"/><path d="m0 0-1.243 1.477a.482.482 0 0 0-.33.906v2.558h.379V2.383a.483.483 0 0 0 .242-.662L.291.244zm-1.383 5.573a3.633 3.633 0 1 1 0-7.266 3.633 3.633 0 0 1 0 7.266" clip-path="url(#B)" style="fill:#fff;fill-opacity:1;fill-rule:nonzero;stroke:none;stroke-width:.205089" transform="matrix(1.72012 0 0 -1.72012 160.885 161.921)"/><path d="M196.427 282.852h5.058v5.065h-5.058z" clip-path="url(#C)" style="fill:#6ec3ee;fill-opacity:1;fill-rule:nonzero;stroke:none;stroke-width:.205089" transform="matrix(1.72012 0 0 -1.72012 -219.417 693.885)"/><path d="M248.046 282.852h5.058v5.065h-5.058z" clip-path="url(#D)" style="fill:#6ec3ee;fill-opacity:1;fill-rule:nonzero;stroke:none;stroke-width:.205089" transform="matrix(1.72012 0 0 -1.72012 -219.417 693.885)"/><path d="M216.797 282.852h5.595v4.24h-5.595z" clip-path="url(#E)" style="fill:#6ec3ee;fill-opacity:1;fill-rule:nonzero;stroke:none;stroke-width:.205089" transform="matrix(1.72012 0 0 -1.72012 -219.417 693.885)"/><path d="M0 0a3.634 3.634 0 1 0 0 7.268A3.634 3.634 0 0 0 0 0m41.193 3.989H30.398V-7.394l-2.822.008v3.268h-3.787v1.644h-4.553V-4.2h-3.713l.003-5.172h-4.245v7.204H5.64V9.656H-5.507V-1.307h-4.466V-9.01l-6.441.634.127 2.658c.681-.14 1.372-.316 2.063-.534q.338 1.076.678 2.152c-2.477.779-4.902 1.067-6.997 1.124h-.014a28 28 0 0 1-2.983 0h-.015c-1.927-.052-4.133-.301-6.401-.946l-.717-.204-.007 8.721-5.548 1.003-.406-1.105-2.03.007v7.774H-49.12V-4.129h-7.281v-1.388h2.004v-4.145h.816v-15.051h8.997v2.82h1.702c-.318.28-.52.669-.564 1.09l-9.056 4.529q.105.31.207.622l9.82-3.437a1.69 1.69 0 0 0 1.585-.086q2.076.417 4.154.831.157-.315.315-.629l-3.659-1.83a1.7 1.7 0 0 0-.564-1.09h4.52v-2.82h6.711v13.076l2.589.004v.44l3.544.005v-4.859h5.058v4.859l3.544-.005v-.44l2.588-.004v-13.076h7.162v6.905h7.613v4.847h1.214l.597-.538h1.021v-1.451h10.909v-9.763h5.78v13.076l2.588.004v.44l3.545.005v-4.859h5.058v4.859l3.544-.005v-.44l2.588-.004v-13.076h14.052V5.455H41.193Z" clip-path="url(#F)" style="fill:#6ec3ee;fill-opacity:1;fill-rule:nonzero;stroke:none;stroke-width:.205089" transform="matrix(1.72012 0 0 -1.72012 158.506 164.837)"/><path d="M0 0v2.558h-.38V0a.484.484 0 0 1 .331-.906l1.243-1.477q.143.122.29.244L.242-.662A.483.483 0 0 1 0 0" clip-path="url(#G)" style="fill:#6ec3ee;fill-opacity:1;fill-rule:nonzero;stroke:none;stroke-width:.205089" transform="matrix(1.72012 0 0 -1.72012 158.832 157.823)"/><path d="M0 0c-34.869 0-63.237 28.368-63.237 63.238 0 34.869 28.368 63.237 63.237 63.237s63.238-28.368 63.238-63.237S34.869 0 0 0m0 148.277c-46.966 0-85.039-38.073-85.039-85.04 0-46.966 38.073-85.039 85.039-85.039s85.04 38.073 85.04 85.039-38.074 85.04-85.04 85.04" clip-path="url(#H)" style="fill:#1157a7;fill-opacity:1;fill-rule:nonzero;stroke:none;stroke-width:.205089" transform="matrix(1.72012 0 0 -1.72012 158.494 267.362)"/><path d="M0 0c4.862 0 6.374 0 7.886-.002a733 733 0 0 0 4.195-.02q1.934-.015 3.868-.052 1.78-.035 3.557-.102 1.634-.061 3.264-.17c1-.068 1.999-.152 2.994-.261a46 46 0 0 0 3.266-.466 30 30 0 0 0 2.477-.553 21 21 0 0 0 2.275-.747c.592-.236 1.169-.5 1.719-.801a13 13 0 0 0 1.349-.838q.642.457 1.349.838c.551.301 1.127.565 1.72.801.736.293 1.499.538 2.273.747.814.221 1.642.401 2.479.553q.657.12 1.319.217.97.143 1.946.249c.994.109 1.993.193 2.993.261 1.087.074 2.176.128 3.265.17q1.779.068 3.557.102 1.934.037 3.87.052 2.097.016 4.194.02C67.326 0 68.839 0 73.699 0v-1.701l-4.197-.001q-2.464-.002-4.93-.015a468 468 0 0 1-3.553-.032 303 303 0 0 1-3.303-.058 194 194 0 0 1-3.052-.094q-1.403-.056-2.803-.141a91 91 0 0 1-2.503-.19 61 61 0 0 1-2.287-.253 39 39 0 0 1-2.081-.325 29 29 0 0 1-1.891-.413 20 20 0 0 1-1.701-.515 15 15 0 0 1-1.205-.485 12 12 0 0 1-1.292-.681 10 10 0 0 1-1.087-.769 8.6 8.6 0 0 1-.964-.921q-.447.498-.964.921a10 10 0 0 1-1.088.769q-.624.382-1.291.681-.593.27-1.206.485c-.557.199-1.127.368-1.7.515a29 29 0 0 1-1.89.413q-1.037.19-2.083.325-1.14.148-2.286.253-1.25.112-2.502.19-1.401.085-2.803.141-1.526.059-3.052.094-1.651.038-3.304.058-1.776.023-3.554.032-2.464.014-4.929.015L0-1.701z" clip-path="url(#I)" style="fill:#1157a7;fill-opacity:1;fill-rule:nonzero;stroke:none;stroke-width:.205089" transform="matrix(1.72012 0 0 -1.72012 95.108 89.71)"/><path d="M180.016 325.372h79.37v2.268h-79.37z" clip-path="url(#J)" style="fill:#1157a7;fill-opacity:1;fill-rule:nonzero;stroke:none;stroke-width:.205089" transform="matrix(1.72012 0 0 -1.72012 -219.417 693.885)"/><path d="m0 0 1.686-.228.532 3.932-1.685.228Z" clip-path="url(#K)" style="fill:#1157a7;fill-opacity:1;fill-rule:nonzero;stroke:none;stroke-width:.205089" transform="matrix(1.72012 0 0 -1.72012 177.037 10.902)"/><path d="m0 0 1.694-.153.508 5.647-1.693.153Z" clip-path="url(#L)" style="fill:#1157a7;fill-opacity:1;fill-rule:nonzero;stroke:none;stroke-width:.205089" transform="matrix(1.72012 0 0 -1.72012 170.375 10.218)"/><path d="m0 0 1.657-.379.884 3.869-1.658.379Z" clip-path="url(#M)" style="fill:#1157a7;fill-opacity:1;fill-rule:nonzero;stroke:none;stroke-width:.205089" transform="matrix(1.72012 0 0 -1.72012 190.2 13.16)"/><path d="m0 0 1.673-.304 1.013 5.579-1.674.303Z" clip-path="url(#N)" style="fill:#1157a7;fill-opacity:1;fill-rule:nonzero;stroke:none;stroke-width:.205089" transform="matrix(1.72012 0 0 -1.72012 183.629 11.88)"/><path d="m0 0 1.617-.526 1.226 3.775-1.617.524Z" clip-path="url(#O)" style="fill:#1157a7;fill-opacity:1;fill-rule:nonzero;stroke:none;stroke-width:.205089" transform="matrix(1.72012 0 0 -1.72012 203.11 16.586)"/><path d="m0 0 1.639-.452 1.508 5.464-1.639.452Z" clip-path="url(#P)" style="fill:#1157a7;fill-opacity:1;fill-rule:nonzero;stroke:none;stroke-width:.205089" transform="matrix(1.72012 0 0 -1.72012 196.678 14.723)"/><path d="m0 0 1.564-.669 1.56 3.65-1.564.668Z" clip-path="url(#Q)" style="fill:#1157a7;fill-opacity:1;fill-rule:nonzero;stroke:none;stroke-width:.205089" transform="matrix(1.72012 0 0 -1.72012 215.658 21.157)"/><path d="m0 0 1.592-.598L3.585 4.71l-1.593.598Z" clip-path="url(#R)" style="fill:#1157a7;fill-opacity:1;fill-rule:nonzero;stroke:none;stroke-width:.205089" transform="matrix(1.72012 0 0 -1.72012 209.42 18.726)"/><path d="m0 0 1.498-.806 1.88 3.495-1.498.806Z" clip-path="url(#S)" style="fill:#1157a7;fill-opacity:1;fill-rule:nonzero;stroke:none;stroke-width:.205089" transform="matrix(1.72012 0 0 -1.72012 227.747 26.835)"/><path d="m0 0 1.533-.738 2.46 5.108-1.533.738Z" clip-path="url(#T)" style="fill:#1157a7;fill-opacity:1;fill-rule:nonzero;stroke:none;stroke-width:.205089" transform="matrix(1.72012 0 0 -1.72012 221.75 23.854)"/><path d="m0 0 1.42-.937 2.185 3.312-1.418.938Z" clip-path="url(#U)" style="fill:#1157a7;fill-opacity:1;fill-rule:nonzero;stroke:none;stroke-width:.205089" transform="matrix(1.72012 0 0 -1.72012 239.279 33.573)"/><path d="m0 0 1.461-.873 2.907 4.868-1.46.872Z" clip-path="url(#V)" style="fill:#1157a7;fill-opacity:1;fill-rule:nonzero;stroke:none;stroke-width:.205089" transform="matrix(1.72012 0 0 -1.72012 233.574 30.066)"/><path d="m0 0 1.33-1.061 2.474 3.103-1.33 1.06z" clip-path="url(#W)" style="fill:#1157a7;fill-opacity:1;fill-rule:nonzero;stroke:none;stroke-width:.205089" transform="matrix(1.72012 0 0 -1.72012 250.16 41.318)"/><path d="m0 0 1.376-.999 3.332 4.586-1.376 1z" clip-path="url(#X)" style="fill:#1157a7;fill-opacity:1;fill-rule:nonzero;stroke:none;stroke-width:.205089" transform="matrix(1.72012 0 0 -1.72012 244.792 37.314)"/><path d="m0 0 1.229-1.175 2.742 2.868-1.229 1.176Z" clip-path="url(#Y)" style="fill:#1157a7;fill-opacity:1;fill-rule:nonzero;stroke:none;stroke-width:.205089" transform="matrix(1.72012 0 0 -1.72012 260.303 50.007)"/><path d="m0 0 1.281-1.119 3.73 4.269-1.282 1.119Z" clip-path="url(#Z)" style="fill:#1157a7;fill-opacity:1;fill-rule:nonzero;stroke:none;stroke-width:.205089" transform="matrix(1.72012 0 0 -1.72012 255.316 45.537)"/><path d="m0 0 1.118-1.281 2.989 2.612-1.119 1.28Z" clip-path="url(#aa)" style="fill:#1157a7;fill-opacity:1;fill-rule:nonzero;stroke:none;stroke-width:.205089" transform="matrix(1.72012 0 0 -1.72012 269.626 59.57)"/><path d="m0 0 1.175-1.23 4.098 3.919-1.176 1.229Z" clip-path="url(#ab)" style="fill:#1157a7;fill-opacity:1;fill-rule:nonzero;stroke:none;stroke-width:.205089" transform="matrix(1.72012 0 0 -1.72012 265.06 54.671)"/><path d="m0 0 .999-1.376L4.21.957l-.999 1.375Z" clip-path="url(#ac)" style="fill:#1157a7;fill-opacity:1;fill-rule:nonzero;stroke:none;stroke-width:.205089" transform="matrix(1.72012 0 0 -1.72012 278.055 69.93)"/><path d="m0 0 1.061-1.33 4.431 3.535-1.06 1.33z" clip-path="url(#ad)" style="fill:#1157a7;fill-opacity:1;fill-rule:nonzero;stroke:none;stroke-width:.205089" transform="matrix(1.72012 0 0 -1.72012 273.946 64.642)"/><path d="m0 0 .873-1.46L4.279.575l-.872 1.46Z" clip-path="url(#ae)" style="fill:#1157a7;fill-opacity:1;fill-rule:nonzero;stroke:none;stroke-width:.205089" transform="matrix(1.72012 0 0 -1.72012 285.52 81.004)"/><path d="m0 0 .937-1.42 4.732 3.124-.938 1.419Z" clip-path="url(#af)" style="fill:#1157a7;fill-opacity:1;fill-rule:nonzero;stroke:none;stroke-width:.205089" transform="matrix(1.72012 0 0 -1.72012 281.9 75.37)"/><path d="m0 0 .739-1.533L4.314.19l-.738 1.531Z" clip-path="url(#ag)" style="fill:#1157a7;fill-opacity:1;fill-rule:nonzero;stroke:none;stroke-width:.205089" transform="matrix(1.72012 0 0 -1.72012 291.962 92.703)"/><path d="m0 0 .806-1.498 4.993 2.687-.806 1.498Z" clip-path="url(#ah)" style="fill:#1157a7;fill-opacity:1;fill-rule:nonzero;stroke:none;stroke-width:.205089" transform="matrix(1.72012 0 0 -1.72012 288.865 86.767)"/><path d="m0 0 .598-1.592L4.314-.199l-.599 1.593Z" clip-path="url(#ai)" style="fill:#1157a7;fill-opacity:1;fill-rule:nonzero;stroke:none;stroke-width:.205089" transform="matrix(1.72012 0 0 -1.72012 297.332 104.931)"/><path d="m0 0 .668-1.564L5.882.664l-.668 1.564Z" clip-path="url(#aj)" style="fill:#1157a7;fill-opacity:1;fill-rule:nonzero;stroke:none;stroke-width:.205089" transform="matrix(1.72012 0 0 -1.72012 294.777 98.742)"/><path d="m0 0 .452-1.639L4.277-.584l-.452 1.64z" clip-path="url(#ak)" style="fill:#1157a7;fill-opacity:1;fill-rule:nonzero;stroke:none;stroke-width:.205089" transform="matrix(1.72012 0 0 -1.72012 301.582 117.594)"/><path d="m0 0 .525-1.618L5.918.134l-.526 1.618Z" clip-path="url(#al)" style="fill:#1157a7;fill-opacity:1;fill-rule:nonzero;stroke:none;stroke-width:.205089" transform="matrix(1.72012 0 0 -1.72012 299.593 111.2)"/><path d="m0 0 .304-1.674 3.904.709L3.906.708Z" clip-path="url(#am)" style="fill:#1157a7;fill-opacity:1;fill-rule:nonzero;stroke:none;stroke-width:.205089" transform="matrix(1.72012 0 0 -1.72012 304.68 130.585)"/><path d="m0 0 .379-1.658L5.905-.397l-.378 1.658Z" clip-path="url(#an)" style="fill:#1157a7;fill-opacity:1;fill-rule:nonzero;stroke:none;stroke-width:.205089" transform="matrix(1.72012 0 0 -1.72012 303.273 124.038)"/><path d="m0 0 .153-1.694 3.951.357L3.952.356Z" clip-path="url(#ao)" style="fill:#1157a7;fill-opacity:1;fill-rule:nonzero;stroke:none;stroke-width:.205089" transform="matrix(1.72012 0 0 -1.72012 306.602 143.801)"/><path d="m0 0 .228-1.686 5.618.762L5.618.761Z" clip-path="url(#ap)" style="fill:#1157a7;fill-opacity:1;fill-rule:nonzero;stroke:none;stroke-width:.205089" transform="matrix(1.72012 0 0 -1.72012 305.788 137.155)"/><path d="M306.228 310.341h3.968v1.701h-3.968z" clip-path="url(#aq)" style="fill:#1157a7;fill-opacity:1;fill-rule:nonzero;stroke:none;stroke-width:.205089" transform="matrix(1.72012 0 0 -1.72012 -219.417 693.885)"/><path d="m0 0 .076-1.699 5.663.254L5.663.254Z" clip-path="url(#ar)" style="fill:#1157a7;fill-opacity:1;fill-rule:nonzero;stroke:none;stroke-width:.205089" transform="matrix(1.72012 0 0 -1.72012 307.116 150.444)"/><path d="m0 0-.153-1.694L3.8-2.05l.153 1.694Z" clip-path="url(#as)" style="fill:#1157a7;fill-opacity:1;fill-rule:nonzero;stroke:none;stroke-width:.205089" transform="matrix(1.72012 0 0 -1.72012 306.863 170.485)"/><path d="m0 0-.076-1.699 5.663-.254.077 1.699z" clip-path="url(#at)" style="fill:#1157a7;fill-opacity:1;fill-rule:nonzero;stroke:none;stroke-width:.205089" transform="matrix(1.72012 0 0 -1.72012 307.247 163.8)"/><path d="m0 0-.303-1.674 3.904-.708.305 1.674z" clip-path="url(#au)" style="fill:#1157a7;fill-opacity:1;fill-rule:nonzero;stroke:none;stroke-width:.205089" transform="matrix(1.72012 0 0 -1.72012 305.197 183.736)"/><path d="m0 0-.229-1.686 5.619-.761.227 1.686Z" clip-path="url(#av)" style="fill:#1157a7;fill-opacity:1;fill-rule:nonzero;stroke:none;stroke-width:.205089" transform="matrix(1.72012 0 0 -1.72012 306.181 177.113)"/><path d="m0 0-.452-1.639 3.824-1.056.452 1.64z" clip-path="url(#aw)" style="fill:#1157a7;fill-opacity:1;fill-rule:nonzero;stroke:none;stroke-width:.205089" transform="matrix(1.72012 0 0 -1.72012 302.353 196.786)"/><path d="m0 0-.379-1.658L5.148-2.92l.379 1.658Z" clip-path="url(#ax)" style="fill:#1157a7;fill-opacity:1;fill-rule:nonzero;stroke:none;stroke-width:.205089" transform="matrix(1.72012 0 0 -1.72012 303.925 190.277)"/><path d="m0 0-.599-1.592 3.716-1.394.598 1.591z" clip-path="url(#ay)" style="fill:#1157a7;fill-opacity:1;fill-rule:nonzero;stroke:none;stroke-width:.205089" transform="matrix(1.72012 0 0 -1.72012 298.35 209.527)"/><path d="m0 0-.525-1.617 5.391-1.752.527 1.617z" clip-path="url(#az)" style="fill:#1157a7;fill-opacity:1;fill-rule:nonzero;stroke:none;stroke-width:.205089" transform="matrix(1.72012 0 0 -1.72012 300.498 203.186)"/><path d="m0 0-.739-1.533 3.575-1.721.739 1.533z" clip-path="url(#aA)" style="fill:#1157a7;fill-opacity:1;fill-rule:nonzero;stroke:none;stroke-width:.205089" transform="matrix(1.72012 0 0 -1.72012 293.221 221.859)"/><path d="m0 0-.667-1.563 5.212-2.229.669 1.564z" clip-path="url(#aB)" style="fill:#1157a7;fill-opacity:1;fill-rule:nonzero;stroke:none;stroke-width:.205089" transform="matrix(1.72012 0 0 -1.72012 295.929 215.736)"/><path d="m0 0-.873-1.46 3.408-2.036.872 1.461z" clip-path="url(#aC)" style="fill:#1157a7;fill-opacity:1;fill-rule:nonzero;stroke:none;stroke-width:.205089" transform="matrix(1.72012 0 0 -1.72012 287.006 233.68)"/><path d="m0 0-.806-1.498 4.992-2.686.807 1.497z" clip-path="url(#aD)" style="fill:#1157a7;fill-opacity:1;fill-rule:nonzero;stroke:none;stroke-width:.205089" transform="matrix(1.72012 0 0 -1.72012 290.253 227.825)"/><path d="m0 0-.999-1.376 3.211-2.332 1 1.376z" clip-path="url(#aE)" style="fill:#1157a7;fill-opacity:1;fill-rule:nonzero;stroke:none;stroke-width:.205089" transform="matrix(1.72012 0 0 -1.72012 279.756 244.898)"/><path d="m0 0-.937-1.42 4.731-3.123.937 1.42z" clip-path="url(#aF)" style="fill:#1157a7;fill-opacity:1;fill-rule:nonzero;stroke:none;stroke-width:.205089" transform="matrix(1.72012 0 0 -1.72012 283.517 239.357)"/><path d="m0 0-1.118-1.281L1.87-3.892l1.119 1.281Z" clip-path="url(#aG)" style="fill:#1157a7;fill-opacity:1;fill-rule:nonzero;stroke:none;stroke-width:.205089" transform="matrix(1.72012 0 0 -1.72012 271.532 255.42)"/><path d="m0 0-1.061-1.33 4.432-3.535 1.061 1.33z" clip-path="url(#aH)" style="fill:#1157a7;fill-opacity:1;fill-rule:nonzero;stroke:none;stroke-width:.205089" transform="matrix(1.72012 0 0 -1.72012 275.773 250.238)"/><path d="m0 0-1.23-1.176 2.743-2.868 1.229 1.175z" clip-path="url(#aI)" style="fill:#1157a7;fill-opacity:1;fill-rule:nonzero;stroke:none;stroke-width:.205089" transform="matrix(1.72012 0 0 -1.72012 262.398 265.163)"/><path d="m0 0-1.176-1.229 4.097-3.918 1.176 1.229z" clip-path="url(#aJ)" style="fill:#1157a7;fill-opacity:1;fill-rule:nonzero;stroke:none;stroke-width:.205089" transform="matrix(1.72012 0 0 -1.72012 267.086 260.382)"/><path d="m0 0-1.331-1.061 2.475-3.102 1.33 1.061z" clip-path="url(#aK)" style="fill:#1157a7;fill-opacity:1;fill-rule:nonzero;stroke:none;stroke-width:.205089" transform="matrix(1.72012 0 0 -1.72012 252.426 274.048)"/><path d="m0 0-1.281-1.119 3.731-4.27 1.28 1.12z" clip-path="url(#aL)" style="fill:#1157a7;fill-opacity:1;fill-rule:nonzero;stroke:none;stroke-width:.205089" transform="matrix(1.72012 0 0 -1.72012 257.522 269.706)"/><path d="m0 0-1.42-.937L.767-4.249l1.42.938z" clip-path="url(#aM)" style="fill:#1157a7;fill-opacity:1;fill-rule:nonzero;stroke:none;stroke-width:.205089" transform="matrix(1.72012 0 0 -1.72012 241.698 282.003)"/><path d="m0 0-1.376-1 3.333-4.586 1.375.999z" clip-path="url(#aN)" style="fill:#1157a7;fill-opacity:1;fill-rule:nonzero;stroke:none;stroke-width:.205089" transform="matrix(1.72012 0 0 -1.72012 247.164 278.136)"/><path d="m0 0-1.498-.806L.383-4.301l1.497.806Z" clip-path="url(#aO)" style="fill:#1157a7;fill-opacity:1;fill-rule:nonzero;stroke:none;stroke-width:.205089" transform="matrix(1.72012 0 0 -1.72012 230.3 288.965)"/><path d="m0 0-1.46-.873L1.448-5.74l1.46.873z" clip-path="url(#aP)" style="fill:#1157a7;fill-opacity:1;fill-rule:nonzero;stroke:none;stroke-width:.205089" transform="matrix(1.72012 0 0 -1.72012 236.09 285.603)"/><path d="m0 0-1.564-.668 1.56-3.649 1.563.668z" clip-path="url(#aQ)" style="fill:#1157a7;fill-opacity:1;fill-rule:nonzero;stroke:none;stroke-width:.205089" transform="matrix(1.72012 0 0 -1.72012 218.324 294.877)"/><path d="m0 0-1.533-.738L.926-5.845l1.534.737Z" clip-path="url(#aR)" style="fill:#1157a7;fill-opacity:1;fill-rule:nonzero;stroke:none;stroke-width:.205089" transform="matrix(1.72012 0 0 -1.72012 224.393 292.048)"/><path d="m0 0-1.618-.526L-.392-4.3l1.618.525Z" clip-path="url(#aS)" style="fill:#1157a7;fill-opacity:1;fill-rule:nonzero;stroke:none;stroke-width:.205089" transform="matrix(1.72012 0 0 -1.72012 205.866 299.69)"/><path d="m0 0-1.592-.598L.4-5.905l1.592.597Z" clip-path="url(#aT)" style="fill:#1157a7;fill-opacity:1;fill-rule:nonzero;stroke:none;stroke-width:.205089" transform="matrix(1.72012 0 0 -1.72012 212.163 297.417)"/><path d="m0 0-1.658-.379.883-3.869 1.658.379z" clip-path="url(#aU)" style="fill:#1157a7;fill-opacity:1;fill-rule:nonzero;stroke:none;stroke-width:.205089" transform="matrix(1.72012 0 0 -1.72012 193.027 303.37)"/><path d="m0 0-1.64-.452 1.509-5.466 1.639.452z" clip-path="url(#aV)" style="fill:#1157a7;fill-opacity:1;fill-rule:nonzero;stroke:none;stroke-width:.205089" transform="matrix(1.72012 0 0 -1.72012 199.504 301.67)"/><path d="m0 0-1.687-.228.534-3.933 1.684.229z" clip-path="url(#aW)" style="fill:#1157a7;fill-opacity:1;fill-rule:nonzero;stroke:none;stroke-width:.205089" transform="matrix(1.72012 0 0 -1.72012 179.91 305.881)"/><path d="m0 0-1.674-.304 1.012-5.578 1.674.304z" clip-path="url(#aX)" style="fill:#1157a7;fill-opacity:1;fill-rule:nonzero;stroke:none;stroke-width:.205089" transform="matrix(1.72012 0 0 -1.72012 186.513 304.77)"/><path d="m0 0-1.699-.076.178-3.965 1.699.077z" clip-path="url(#aY)" style="fill:#1157a7;fill-opacity:1;fill-rule:nonzero;stroke:none;stroke-width:.205089" transform="matrix(1.72012 0 0 -1.72012 166.62 307.208)"/><path d="m0 0-1.694-.153.507-5.646 1.695.152z" clip-path="url(#aZ)" style="fill:#1157a7;fill-opacity:1;fill-rule:nonzero;stroke:none;stroke-width:.205089" transform="matrix(1.72012 0 0 -1.72012 173.296 306.692)"/><path d="m0 0-1.699.076-.177-3.963 1.698-.077z" clip-path="url(#ba)" style="fill:#1157a7;fill-opacity:1;fill-rule:nonzero;stroke:none;stroke-width:.205089" transform="matrix(1.72012 0 0 -1.72012 153.265 307.338)"/><path d="M220.553 224.672h-1.701v-5.669h1.701z" clip-path="url(#bb)" style="fill:#1157a7;fill-opacity:1;fill-rule:nonzero;stroke:none;stroke-width:.205089" transform="matrix(1.72012 0 0 -1.72012 -219.417 693.885)"/><path d="m0 0-1.686.228-.532-3.932 1.685-.228z" clip-path="url(#bc)" style="fill:#1157a7;fill-opacity:1;fill-rule:nonzero;stroke:none;stroke-width:.205089" transform="matrix(1.72012 0 0 -1.72012 139.951 306.27)"/><path d="m0 0-1.694.152-.508-5.646 1.693-.153z" clip-path="url(#bd)" style="fill:#1157a7;fill-opacity:1;fill-rule:nonzero;stroke:none;stroke-width:.205089" transform="matrix(1.72012 0 0 -1.72012 146.613 306.955)"/><path d="m0 0-1.657.379-.884-3.869 1.659-.379Z" clip-path="url(#be)" style="fill:#1157a7;fill-opacity:1;fill-rule:nonzero;stroke:none;stroke-width:.205089" transform="matrix(1.72012 0 0 -1.72012 126.787 304.014)"/><path d="m0 0-1.674.304-1.013-5.578 1.674-.304z" clip-path="url(#bf)" style="fill:#1157a7;fill-opacity:1;fill-rule:nonzero;stroke:none;stroke-width:.205089" transform="matrix(1.72012 0 0 -1.72012 133.361 305.293)"/><path d="m0 0-1.617.525-1.227-3.775 1.617-.525Z" clip-path="url(#bg)" style="fill:#1157a7;fill-opacity:1;fill-rule:nonzero;stroke:none;stroke-width:.205089" transform="matrix(1.72012 0 0 -1.72012 113.88 300.586)"/><path d="m0 0-1.64.452-1.508-5.464 1.639-.454z" clip-path="url(#bh)" style="fill:#1157a7;fill-opacity:1;fill-rule:nonzero;stroke:none;stroke-width:.205089" transform="matrix(1.72012 0 0 -1.72012 120.312 302.45)"/><path d="m0 0-1.563.668-1.561-3.649 1.565-.668z" clip-path="url(#bi)" style="fill:#1157a7;fill-opacity:1;fill-rule:nonzero;stroke:none;stroke-width:.205089" transform="matrix(1.72012 0 0 -1.72012 101.33 296.015)"/><path d="m0 0-1.592.598-1.993-5.309 1.594-.597z" clip-path="url(#bj)" style="fill:#1157a7;fill-opacity:1;fill-rule:nonzero;stroke:none;stroke-width:.205089" transform="matrix(1.72012 0 0 -1.72012 107.569 298.447)"/><path d="m0 0-1.498.806-1.88-3.495 1.498-.806z" clip-path="url(#bk)" style="fill:#1157a7;fill-opacity:1;fill-rule:nonzero;stroke:none;stroke-width:.205089" transform="matrix(1.72012 0 0 -1.72012 89.24 290.338)"/><path d="m0 0-1.533.738-2.46-5.108 1.533-.738Z" clip-path="url(#bl)" style="fill:#1157a7;fill-opacity:1;fill-rule:nonzero;stroke:none;stroke-width:.205089" transform="matrix(1.72012 0 0 -1.72012 95.237 293.319)"/><path d="m0 0-1.42.937-2.185-3.311 1.418-.937z" clip-path="url(#bm)" style="fill:#1157a7;fill-opacity:1;fill-rule:nonzero;stroke:none;stroke-width:.205089" transform="matrix(1.72012 0 0 -1.72012 77.71 283.6)"/><path d="m0 0-1.46.872-2.907-4.867 1.459-.872z" clip-path="url(#bn)" style="fill:#1157a7;fill-opacity:1;fill-rule:nonzero;stroke:none;stroke-width:.205089" transform="matrix(1.72012 0 0 -1.72012 83.414 287.107)"/><path d="m0 0-1.33 1.061-2.474-3.103 1.33-1.061z" clip-path="url(#bo)" style="fill:#1157a7;fill-opacity:1;fill-rule:nonzero;stroke:none;stroke-width:.205089" transform="matrix(1.72012 0 0 -1.72012 66.828 275.855)"/><path d="m0 0-1.376 1-3.333-4.587 1.377-1z" clip-path="url(#bp)" style="fill:#1157a7;fill-opacity:1;fill-rule:nonzero;stroke:none;stroke-width:.205089" transform="matrix(1.72012 0 0 -1.72012 72.196 279.86)"/><path d="m0 0-1.23 1.176-2.742-2.869 1.229-1.176z" clip-path="url(#bq)" style="fill:#1157a7;fill-opacity:1;fill-rule:nonzero;stroke:none;stroke-width:.205089" transform="matrix(1.72012 0 0 -1.72012 56.687 267.167)"/><path d="m0 0-1.281 1.119-3.729-4.27 1.281-1.118z" clip-path="url(#br)" style="fill:#1157a7;fill-opacity:1;fill-rule:nonzero;stroke:none;stroke-width:.205089" transform="matrix(1.72012 0 0 -1.72012 61.672 271.635)"/><path d="m0 0-1.119 1.281-2.989-2.612 1.119-1.28z" clip-path="url(#bs)" style="fill:#1157a7;fill-opacity:1;fill-rule:nonzero;stroke:none;stroke-width:.205089" transform="matrix(1.72012 0 0 -1.72012 47.364 257.603)"/><path d="m0 0-1.176 1.229-4.098-3.918 1.176-1.229z" clip-path="url(#bt)" style="fill:#1157a7;fill-opacity:1;fill-rule:nonzero;stroke:none;stroke-width:.205089" transform="matrix(1.72012 0 0 -1.72012 51.93 262.501)"/><path d="m0 0-1 1.376-3.211-2.333 1-1.375z" clip-path="url(#bu)" style="fill:#1157a7;fill-opacity:1;fill-rule:nonzero;stroke:none;stroke-width:.205089" transform="matrix(1.72012 0 0 -1.72012 38.935 247.243)"/><path d="m0 0-1.062 1.33-4.431-3.535 1.06-1.33z" clip-path="url(#bv)" style="fill:#1157a7;fill-opacity:1;fill-rule:nonzero;stroke:none;stroke-width:.205089" transform="matrix(1.72012 0 0 -1.72012 43.044 252.53)"/><path d="m0 0-.872 1.46-3.406-2.036.871-1.46z" clip-path="url(#bw)" style="fill:#1157a7;fill-opacity:1;fill-rule:nonzero;stroke:none;stroke-width:.205089" transform="matrix(1.72012 0 0 -1.72012 31.468 236.169)"/><path d="m0 0-.937 1.42-4.731-3.124.937-1.419z" clip-path="url(#bx)" style="fill:#1157a7;fill-opacity:1;fill-rule:nonzero;stroke:none;stroke-width:.205089" transform="matrix(1.72012 0 0 -1.72012 35.087 241.803)"/><path d="m0 0-.739 1.533L-4.314-.19l.738-1.533Z" clip-path="url(#by)" style="fill:#1157a7;fill-opacity:1;fill-rule:nonzero;stroke:none;stroke-width:.205089" transform="matrix(1.72012 0 0 -1.72012 25.026 224.47)"/><path d="m0 0-.806 1.497-4.993-2.686.806-1.498z" clip-path="url(#bz)" style="fill:#1157a7;fill-opacity:1;fill-rule:nonzero;stroke:none;stroke-width:.205089" transform="matrix(1.72012 0 0 -1.72012 28.123 230.405)"/><path d="m0 0-.599 1.592L-4.314.198l.598-1.592Z" clip-path="url(#bA)" style="fill:#1157a7;fill-opacity:1;fill-rule:nonzero;stroke:none;stroke-width:.205089" transform="matrix(1.72012 0 0 -1.72012 19.658 212.241)"/><path d="m0 0-.668 1.564-5.213-2.229.668-1.563z" clip-path="url(#bB)" style="fill:#1157a7;fill-opacity:1;fill-rule:nonzero;stroke:none;stroke-width:.205089" transform="matrix(1.72012 0 0 -1.72012 22.21 218.43)"/><path d="m0 0-.453 1.64L-4.278.585l.452-1.64z" clip-path="url(#bC)" style="fill:#1157a7;fill-opacity:1;fill-rule:nonzero;stroke:none;stroke-width:.205089" transform="matrix(1.72012 0 0 -1.72012 15.407 199.58)"/><path d="m0 0-.525 1.617-5.392-1.751.525-1.618z" clip-path="url(#bD)" style="fill:#1157a7;fill-opacity:1;fill-rule:nonzero;stroke:none;stroke-width:.205089" transform="matrix(1.72012 0 0 -1.72012 17.395 205.973)"/><path d="m0 0-.304 1.674-3.904-.709.303-1.673Z" clip-path="url(#bE)" style="fill:#1157a7;fill-opacity:1;fill-rule:nonzero;stroke:none;stroke-width:.205089" transform="matrix(1.72012 0 0 -1.72012 12.308 186.589)"/><path d="m0 0-.379 1.659L-5.905.397l.378-1.658Z" clip-path="url(#bF)" style="fill:#1157a7;fill-opacity:1;fill-rule:nonzero;stroke:none;stroke-width:.205089" transform="matrix(1.72012 0 0 -1.72012 13.715 193.134)"/><path d="m0 0-.153 1.694-3.951-.355.152-1.695Z" clip-path="url(#bG)" style="fill:#1157a7;fill-opacity:1;fill-rule:nonzero;stroke:none;stroke-width:.205089" transform="matrix(1.72012 0 0 -1.72012 10.386 173.372)"/><path d="m0 0-.229 1.686-5.618-.762.228-1.685Z" clip-path="url(#bH)" style="fill:#1157a7;fill-opacity:1;fill-rule:nonzero;stroke:none;stroke-width:.205089" transform="matrix(1.72012 0 0 -1.72012 11.202 180.018)"/><path d="M133.174 312.057h-3.968v-1.701h3.968z" clip-path="url(#bI)" style="fill:#1157a7;fill-opacity:1;fill-rule:nonzero;stroke:none;stroke-width:.205089" transform="matrix(1.72012 0 0 -1.72012 -219.417 693.885)"/><path d="m0 0-.076 1.699-5.664-.254.076-1.7z" clip-path="url(#bJ)" style="fill:#1157a7;fill-opacity:1;fill-rule:nonzero;stroke:none;stroke-width:.205089" transform="matrix(1.72012 0 0 -1.72012 9.874 166.728)"/><path d="m0 0 .153 1.694-3.954.356-.153-1.694Z" clip-path="url(#bK)" style="fill:#1157a7;fill-opacity:1;fill-rule:nonzero;stroke:none;stroke-width:.205089" transform="matrix(1.72012 0 0 -1.72012 10.127 146.688)"/><path d="m0 0 .077 1.699-5.663.254-.077-1.699Z" clip-path="url(#bL)" style="fill:#1157a7;fill-opacity:1;fill-rule:nonzero;stroke:none;stroke-width:.205089" transform="matrix(1.72012 0 0 -1.72012 9.741 153.372)"/><path d="m0 0 .304 1.674-3.905.708-.304-1.674Z" clip-path="url(#bM)" style="fill:#1157a7;fill-opacity:1;fill-rule:nonzero;stroke:none;stroke-width:.205089" transform="matrix(1.72012 0 0 -1.72012 11.79 133.437)"/><path d="m0 0 .228 1.686-5.619.76-.227-1.685Z" clip-path="url(#bN)" style="fill:#1157a7;fill-opacity:1;fill-rule:nonzero;stroke:none;stroke-width:.205089" transform="matrix(1.72012 0 0 -1.72012 10.809 140.06)"/><path d="m0 0 .453 1.64-3.825 1.055-.452-1.639Z" clip-path="url(#bO)" style="fill:#1157a7;fill-opacity:1;fill-rule:nonzero;stroke:none;stroke-width:.205089" transform="matrix(1.72012 0 0 -1.72012 14.635 120.388)"/><path d="m0 0 .38 1.658-5.528 1.262-.379-1.659Z" clip-path="url(#bP)" style="fill:#1157a7;fill-opacity:1;fill-rule:nonzero;stroke:none;stroke-width:.205089" transform="matrix(1.72012 0 0 -1.72012 13.062 126.896)"/><path d="m0 0 .598 1.592-3.716 1.395-.598-1.592Z" clip-path="url(#bQ)" style="fill:#1157a7;fill-opacity:1;fill-rule:nonzero;stroke:none;stroke-width:.205089" transform="matrix(1.72012 0 0 -1.72012 18.64 107.646)"/><path d="m0 0 .525 1.617-5.391 1.752-.527-1.617Z" clip-path="url(#bR)" style="fill:#1157a7;fill-opacity:1;fill-rule:nonzero;stroke:none;stroke-width:.205089" transform="matrix(1.72012 0 0 -1.72012 16.49 113.987)"/><path d="m0 0 .738 1.533-3.576 1.721-.738-1.533Z" clip-path="url(#bS)" style="fill:#1157a7;fill-opacity:1;fill-rule:nonzero;stroke:none;stroke-width:.205089" transform="matrix(1.72012 0 0 -1.72012 23.769 95.314)"/><path d="m0 0 .668 1.564-5.213 2.228-.669-1.564Z" clip-path="url(#bT)" style="fill:#1157a7;fill-opacity:1;fill-rule:nonzero;stroke:none;stroke-width:.205089" transform="matrix(1.72012 0 0 -1.72012 21.06 101.438)"/><path d="m0 0 .873 1.46-3.408 2.035-.872-1.46Z" clip-path="url(#bU)" style="fill:#1157a7;fill-opacity:1;fill-rule:nonzero;stroke:none;stroke-width:.205089" transform="matrix(1.72012 0 0 -1.72012 29.982 83.492)"/><path d="m0 0 .806 1.498-4.992 2.687-.807-1.498Z" clip-path="url(#bV)" style="fill:#1157a7;fill-opacity:1;fill-rule:nonzero;stroke:none;stroke-width:.205089" transform="matrix(1.72012 0 0 -1.72012 26.735 89.349)"/><path d="m0 0 .999 1.376-3.211 2.332-.999-1.375Z" clip-path="url(#bW)" style="fill:#1157a7;fill-opacity:1;fill-rule:nonzero;stroke:none;stroke-width:.205089" transform="matrix(1.72012 0 0 -1.72012 37.231 72.275)"/><path d="m0 0 .937 1.42-4.731 3.123-.936-1.42Z" clip-path="url(#bX)" style="fill:#1157a7;fill-opacity:1;fill-rule:nonzero;stroke:none;stroke-width:.205089" transform="matrix(1.72012 0 0 -1.72012 33.47 77.816)"/><path d="m0 0 1.118 1.281-2.988 2.611-1.119-1.281Z" clip-path="url(#bY)" style="fill:#1157a7;fill-opacity:1;fill-rule:nonzero;stroke:none;stroke-width:.205089" transform="matrix(1.72012 0 0 -1.72012 45.456 61.752)"/><path d="m0 0 1.062 1.33-4.433 3.535-1.061-1.33Z" clip-path="url(#bZ)" style="fill:#1157a7;fill-opacity:1;fill-rule:nonzero;stroke:none;stroke-width:.205089" transform="matrix(1.72012 0 0 -1.72012 41.214 66.934)"/><path d="m0 0 1.229 1.175-2.743 2.869-1.228-1.175Z" clip-path="url(#ca)" style="fill:#1157a7;fill-opacity:1;fill-rule:nonzero;stroke:none;stroke-width:.205089" transform="matrix(1.72012 0 0 -1.72012 54.592 52.01)"/><path d="m0 0 1.175 1.229-4.097 3.918-1.176-1.229Z" clip-path="url(#cb)" style="fill:#1157a7;fill-opacity:1;fill-rule:nonzero;stroke:none;stroke-width:.205089" transform="matrix(1.72012 0 0 -1.72012 49.904 56.79)"/><path d="m0 0 1.33 1.061-2.475 3.102-1.329-1.06Z" clip-path="url(#cc)" style="fill:#1157a7;fill-opacity:1;fill-rule:nonzero;stroke:none;stroke-width:.205089" transform="matrix(1.72012 0 0 -1.72012 64.563 43.125)"/><path d="m0 0 1.281 1.119-3.731 4.27-1.28-1.12Z" clip-path="url(#cd)" style="fill:#1157a7;fill-opacity:1;fill-rule:nonzero;stroke:none;stroke-width:.205089" transform="matrix(1.72012 0 0 -1.72012 59.466 47.466)"/><path d="m0 0 1.42.937-2.187 3.312-1.42-.936Z" clip-path="url(#ce)" style="fill:#1157a7;fill-opacity:1;fill-rule:nonzero;stroke:none;stroke-width:.205089" transform="matrix(1.72012 0 0 -1.72012 75.291 35.17)"/><path d="m0 0 1.378 1-3.335 4.586-1.375-.999Z" clip-path="url(#cf)" style="fill:#1157a7;fill-opacity:1;fill-rule:nonzero;stroke:none;stroke-width:.205089" transform="matrix(1.72012 0 0 -1.72012 69.824 39.036)"/><path d="m0 0 1.498.806-1.881 3.495-1.497-.806Z" clip-path="url(#cg)" style="fill:#1157a7;fill-opacity:1;fill-rule:nonzero;stroke:none;stroke-width:.205089" transform="matrix(1.72012 0 0 -1.72012 86.688 28.208)"/><path d="m0 0 1.46.872-2.908 4.868-1.46-.873Z" clip-path="url(#ch)" style="fill:#1157a7;fill-opacity:1;fill-rule:nonzero;stroke:none;stroke-width:.205089" transform="matrix(1.72012 0 0 -1.72012 80.898 31.57)"/><path d="m0 0 1.564.668-1.56 3.649-1.563-.668Z" clip-path="url(#ci)" style="fill:#1157a7;fill-opacity:1;fill-rule:nonzero;stroke:none;stroke-width:.205089" transform="matrix(1.72012 0 0 -1.72012 98.664 22.297)"/><path d="m0 0 1.533.738-2.459 5.108-1.534-.738Z" clip-path="url(#cj)" style="fill:#1157a7;fill-opacity:1;fill-rule:nonzero;stroke:none;stroke-width:.205089" transform="matrix(1.72012 0 0 -1.72012 92.595 25.125)"/><path d="m0 0 1.617.525L.391 4.3l-1.618-.527Z" clip-path="url(#ck)" style="fill:#1157a7;fill-opacity:1;fill-rule:nonzero;stroke:none;stroke-width:.205089" transform="matrix(1.72012 0 0 -1.72012 111.123 17.482)"/><path d="m0 0 1.592.598L-.4 5.906l-1.593-.598Z" clip-path="url(#cl)" style="fill:#1157a7;fill-opacity:1;fill-rule:nonzero;stroke:none;stroke-width:.205089" transform="matrix(1.72012 0 0 -1.72012 104.825 19.756)"/><path d="m0 0 1.658.379-.883 3.869-1.657-.379Z" clip-path="url(#cm)" style="fill:#1157a7;fill-opacity:1;fill-rule:nonzero;stroke:none;stroke-width:.205089" transform="matrix(1.72012 0 0 -1.72012 123.961 13.803)"/><path d="m0 0 1.64.452L.131 5.918l-1.64-.454Z" clip-path="url(#cn)" style="fill:#1157a7;fill-opacity:1;fill-rule:nonzero;stroke:none;stroke-width:.205089" transform="matrix(1.72012 0 0 -1.72012 117.486 15.503)"/><path d="m0 0 1.686.228-.534 3.933-1.685-.229Z" clip-path="url(#co)" style="fill:#1157a7;fill-opacity:1;fill-rule:nonzero;stroke:none;stroke-width:.205089" transform="matrix(1.72012 0 0 -1.72012 137.08 11.29)"/><path d="m0 0 1.674.304L.661 5.882l-1.674-.304Z" clip-path="url(#cp)" style="fill:#1157a7;fill-opacity:1;fill-rule:nonzero;stroke:none;stroke-width:.205089" transform="matrix(1.72012 0 0 -1.72012 130.477 12.404)"/><path d="m0 0 1.699.076-.178 3.965-1.699-.077Z" clip-path="url(#cq)" style="fill:#1157a7;fill-opacity:1;fill-rule:nonzero;stroke:none;stroke-width:.205089" transform="matrix(1.72012 0 0 -1.72012 150.37 9.964)"/><path d="m0 0 1.694.153L1.187 5.8l-1.695-.153Z" clip-path="url(#cr)" style="fill:#1157a7;fill-opacity:1;fill-rule:nonzero;stroke:none;stroke-width:.205089" transform="matrix(1.72012 0 0 -1.72012 143.692 10.48)"/><path d="m0 0 1.697-.076.179 3.964-1.698.077Z" clip-path="url(#cs)" style="fill:#1157a7;fill-opacity:1;fill-rule:nonzero;stroke:none;stroke-width:.205089" transform="matrix(1.72012 0 0 -1.72012 163.725 9.835)"/><path d="M218.849 397.725h1.7v5.669h-1.7z" clip-path="url(#ct)" style="fill:#1157a7;fill-opacity:1;fill-rule:nonzero;stroke:none;stroke-width:.205089" transform="matrix(1.72012 0 0 -1.72012 -219.417 693.885)"/><path d="M0 0c0-1.341-.417-2.356-2.009-2.356S-4.018-1.341-4.018 0v5.298h-2.921V-.011c0-3.203 1.617-4.963 4.93-4.963s4.93 1.76 4.93 4.963v5.309H0Z" clip-path="url(#cu)" style="fill:#1157a7;fill-opacity:1;fill-rule:nonzero;stroke:none;stroke-width:.205089" transform="matrix(1.72012 0 0 -1.72012 130.281 114.779)"/><path d="M0 0h3.273v-7.402h2.921V0h3.273v2.669H0Z" clip-path="url(#cv)" style="fill:#1157a7;fill-opacity:1;fill-rule:nonzero;stroke:none;stroke-width:.205089" transform="matrix(1.72012 0 0 -1.72012 99.983 110.256)"/><path d="M0 0h-1.46l-4.431-4.613V0H-7.05v-10.071h1.159v4.714l4.481-4.714H.201l-4.937 5.14z" clip-path="url(#cw)" style="fill:#1157a7;fill-opacity:1;fill-rule:nonzero;stroke:none;stroke-width:.205089" transform="matrix(1.72012 0 0 -1.72012 153.684 105.666)"/><path d="M0 0v.957h-5.086v3.676h4.583v.906h-4.583v3.575h4.784v.957h-5.942V0Z" clip-path="url(#cx)" style="fill:#1157a7;fill-opacity:1;fill-rule:nonzero;stroke:none;stroke-width:.205089" transform="matrix(1.72012 0 0 -1.72012 201.15 122.989)"/><path d="m0 0 1.487 3.898.428 1.213h.05l.429-1.215L3.88 0Zm1.386 6.647L-2.642-3.625h1.259L-.346-.906h4.572l1.038-2.719h1.259L2.494 6.647Z" clip-path="url(#cy)" style="fill:#1157a7;fill-opacity:1;fill-rule:nonzero;stroke:none;stroke-width:.205089" transform="matrix(1.72012 0 0 -1.72012 206.56 116.752)"/><path d="M0 0a4.079 4.079 0 1 0 0 8.157A4.079 4.079 0 0 0 0 0m0 9.316A5.237 5.237 0 1 1 0-1.159 5.237 5.237 0 0 1 0 9.316" clip-path="url(#cz)" style="fill:#1157a7;fill-opacity:1;fill-rule:nonzero;stroke:none;stroke-width:.205089" transform="matrix(1.72012 0 0 -1.72012 162.52 121.343)"/><path d="M0 0h2.884a1.787 1.787 0 0 0 0-3.575H0Zm-1.158.957V-9.114H0v4.632h2.649l2.585-4.632h1.351L3.832-4.37A2.72 2.72 0 0 1 3.06.957z" clip-path="url(#cA)" style="fill:#1157a7;fill-opacity:1;fill-rule:nonzero;stroke:none;stroke-width:.205089" transform="matrix(1.72012 0 0 -1.72012 176.311 107.311)"/><path d="m0 0-1.134.176-.56-3.614-2.564.397.508 3.278-1.092.169-.508-3.277-2.479.384.534 3.445-1.135.176-.742-4.79 8.404-1.302z" clip-path="url(#cB)" style="fill:#fff;fill-opacity:1;fill-rule:nonzero;stroke:none;stroke-width:.205089" transform="matrix(1.72012 0 0 -1.72012 40.78 135.828)"/><path d="m0 0-1.629-3.368-3.292 1.592-.592-1.225 7.655-3.703.593 1.225L-.634-3.85.995-.481 4.364-2.11l.592 1.225L-2.7 2.817l-.592-1.225Z" clip-path="url(#cC)" style="fill:#fff;fill-opacity:1;fill-rule:nonzero;stroke:none;stroke-width:.205089" transform="matrix(1.72012 0 0 -1.72012 44.53 99.896)"/><path d="m0 0 1.163.707-4.416 7.267-1.163-.707Z" clip-path="url(#cD)" style="fill:#fff;fill-opacity:1;fill-rule:nonzero;stroke:none;stroke-width:.205089" transform="matrix(1.72012 0 0 -1.72012 95.275 56.805)"/><path d="m0 0 1.35-.171 1.068 8.437-1.35.171Z" clip-path="url(#cE)" style="fill:#fff;fill-opacity:1;fill-rule:nonzero;stroke:none;stroke-width:.205089" transform="matrix(1.72012 0 0 -1.72012 172.38 39.577)"/><path d="m0 0 1.795-.692.939-.245.001-.034-.932-.271-1.776-.74Zm5.281-.579L-3.355 2.79l.021-1.505 2.223-.857.039-2.869-2.199-.917.021-1.505 8.54 3.604z" clip-path="url(#cF)" style="fill:#fff;fill-opacity:1;fill-rule:nonzero;stroke:none;stroke-width:.205089" transform="matrix(1.72012 0 0 -1.72012 283.975 155.16)"/><path d="m0 0-3.34-2.374-.829 4.013-1.496.589 1.244-5.492-1.408-3.582 1.266-.498 1.409 3.582L1.497-.588z" clip-path="url(#cG)" style="fill:#fff;fill-opacity:1;fill-rule:nonzero;stroke:none;stroke-width:.205089" transform="matrix(1.72012 0 0 -1.72012 211.274 34.881)"/><path d="m0 0 .024 2.466 7.356-.072.013 1.361-7.356.072.025 2.466-1.149.011-.061-6.293Z" clip-path="url(#cH)" style="fill:#fff;fill-opacity:1;fill-rule:nonzero;stroke:none;stroke-width:.205089" transform="matrix(1.72012 0 0 -1.72012 25.983 162.705)"/><path d="m0 0 2.393-.595L.618-7.734l1.321-.328L3.714-.923l2.393-.596.277 1.115L.277 1.114Z" clip-path="url(#cI)" style="fill:#fff;fill-opacity:1;fill-rule:nonzero;stroke:none;stroke-width:.205089" transform="matrix(1.72012 0 0 -1.72012 185.208 28.731)"/><path d="m0 0-.307 1.106-3.524-.979-.694 2.499 3.195.888-.296 1.065-3.195-.888-.672 2.417 3.359.934-.308 1.106-4.67-1.299 2.278-8.193Z" clip-path="url(#cJ)" style="fill:#fff;fill-opacity:1;fill-rule:nonzero;stroke:none;stroke-width:.205089" transform="matrix(1.72012 0 0 -1.72012 130.703 41.958)"/><path d="m0 0 1.134.175-.558 3.614 2.563.396.507-3.277 1.092.169-.506 3.277 2.479.383.533-3.445 1.134.175-.74 4.79-8.404-1.299Z" clip-path="url(#cK)" style="fill:#fff;fill-opacity:1;fill-rule:nonzero;stroke:none;stroke-width:.205089" transform="matrix(1.72012 0 0 -1.72012 277.58 144.696)"/><path d="m0 0-5.877-6.147.984-.94 2.585 2.705L.09-6.674l.764.799-2.398 2.292L.19-1.77l2.52-2.409.794.829z" clip-path="url(#cL)" style="fill:#fff;fill-opacity:1;fill-rule:nonzero;stroke:none;stroke-width:.205089" transform="matrix(1.72012 0 0 -1.72012 248.492 58.635)"/><path d="M0 0c-1.724.529-2.604 2.238-2.058 4.019.221.719.571 1.26 1.107 1.73l-1.108.632c-.64-.684-1.005-1.291-1.27-2.157-.729-2.374.556-4.796 2.93-5.525 2.374-.728 4.796.557 5.525 2.931.236.769.318 1.316.253 2.177l-1.42.76a4.17 4.17 0 0 0-.001-2.394C3.411.392 1.724-.529 0 0" clip-path="url(#cM)" style="fill:#fff;fill-opacity:1;fill-rule:nonzero;stroke:none;stroke-width:.205089" transform="matrix(1.72012 0 0 -1.72012 35.987 124.47)"/><path d="M0 0c.875-.746.955-1.961.195-2.851-.759-.89-1.971-1.003-2.846-.257L-6.736.381l-.883-1.036 4.188-3.572c1.354-1.155 3.379-.922 4.619.531S2.338-.206.984.949l-4.188 3.572-.883-1.035Z" clip-path="url(#cN)" style="fill:#fff;fill-opacity:1;fill-rule:nonzero;stroke:none;stroke-width:.205089" transform="matrix(1.72012 0 0 -1.72012 65.52 74.664)"/><path d="m0 0 .428-1.421A1.263 1.263 0 0 0-1.99-2.15l-.428 1.421zm.706 1.634L-7.435-.822l.392-1.302 3.583 1.08.259-.86-2.857-3.484.464-1.54 2.9 3.643a2.386 2.386 0 0 1 4.283 1.993z" clip-path="url(#cO)" style="fill:#fff;fill-opacity:1;fill-rule:nonzero;stroke:none;stroke-width:.205089" transform="matrix(1.72012 0 0 -1.72012 284.638 118.091)"/><path d="m0 0 1.472.188a1.262 1.262 0 1 0 .32-2.505L.32-2.505Zm-1.495.966 1.078-8.435 1.35.172-.475 3.712.892.114 2.965-3.393 1.595.204-3.115 3.461a2.386 2.386 0 0 1-1.258 4.553Z" clip-path="url(#cP)" style="fill:#fff;fill-opacity:1;fill-rule:nonzero;stroke:none;stroke-width:.205089" transform="matrix(1.72012 0 0 -1.72012 139.374 27.488)"/><path d="m0 0-.917 1.358-4.851.619 3.044 2.056-.762 1.127-7.047-4.759.762-1.128 3.108 2.099-1.336-4.722 1.023-1.516L-5.516.7z" clip-path="url(#cQ)" style="fill:#fff;fill-opacity:1;fill-rule:nonzero;stroke:none;stroke-width:.205089" transform="matrix(1.72012 0 0 -1.72012 273.091 88.062)"/><path d="m0 0 .756-.895-.01-.017-.786.175L-6.933.481l-.756-.618 5.385-6.582 1.053.861-3.123 3.818-.756.895.01.017.786-.175 7.316-1.201.494.404-5.438 6.647-1.053-.861z" clip-path="url(#cR)" style="fill:#fff;fill-opacity:1;fill-rule:nonzero;stroke:none;stroke-width:.205089" transform="matrix(1.72012 0 0 -1.72012 81.67 58.324)"/><path d="M0 0c-1.386.969-1.697 2.916-.694 4.349 1.001 1.433 2.937 1.809 4.323.84C5.014 4.22 5.325 2.273 4.323.84S1.386-.969 0 0m4.349 6.219a4.423 4.423 0 1 1-5.068-7.25 4.423 4.423 0 0 1 5.068 7.25" clip-path="url(#cS)" style="fill:#fff;fill-opacity:1;fill-rule:nonzero;stroke:none;stroke-width:.205089" transform="matrix(1.72012 0 0 -1.72012 228.224 58.87)"/><path d="M0 0c-.736 1.522-.055 3.373 1.519 4.134 1.575.76 3.447.143 4.183-1.379s.055-3.374-1.52-4.134S.736-1.522 0 0m6.832 3.301A4.422 4.422 0 1 1-1.131-.546 4.422 4.422 0 0 1 6.832 3.3" clip-path="url(#cT)" style="fill:#fff;fill-opacity:1;fill-rule:nonzero;stroke:none;stroke-width:.205089" transform="matrix(1.72012 0 0 -1.72012 268.057 105.655)"/><path d="M0 0c-.17.08-.549.259-1.127.477-.577.218-.932.711-.925 1.207.005.43.348.975 1.333.962C.22 2.635.876 2.143.876 2.143l.271 1.207s-.706.505-1.867.52c-1.475.018-2.643-.758-2.662-2.273-.007-.592.229-1.294.763-1.732.297-.244.442-.326.769-.488a9 9 0 0 1 .961-.41C-.229-1.277.208-1.6.196-2.554c-.011-.845-.947-1.203-1.599-1.195-1.14.015-2.205.846-2.205.846l.204-1.538c.739-.411 1.354-.521 2.041-.529 2.588-.033 2.911 1.774 2.921 2.546C1.58-.686.251-.118 0 0" clip-path="url(#cU)" style="fill:#fff;fill-opacity:1;fill-rule:nonzero;stroke:none;stroke-width:.205089" transform="matrix(1.72012 0 0 -1.72012 161.836 30.521)"/><path d="m0 0-.273 9.266-1.378-.607.185-5.495.142-.96-.032-.014-.613.752L-5.9 6.786l-1.377-.607L-.622-.274Z" clip-path="url(#cV)" style="fill:#fff;fill-opacity:1;fill-rule:nonzero;stroke:none;stroke-width:.205089" transform="matrix(1.72012 0 0 -1.72012 110.76 48.852)"/><path d="M0 0a1.329 1.329 0 1 1-2.658 0A1.329 1.329 0 0 1 0 0" clip-path="url(#cW)" style="fill:#fff;fill-opacity:1;fill-rule:nonzero;stroke:none;stroke-width:.205089" transform="matrix(1.72012 0 0 -1.72012 35.265 178.466)"/><path d="M0 0a1.329 1.329 0 1 1-2.658 0A1.329 1.329 0 0 1 0 0" clip-path="url(#cX)" style="fill:#fff;fill-opacity:1;fill-rule:nonzero;stroke:none;stroke-width:.205089" transform="matrix(1.72012 0 0 -1.72012 37.475 189.33)"/><path d="M0 0a1.329 1.329 0 1 1 0-2.658A1.329 1.329 0 0 1 0 0" clip-path="url(#cY)" style="fill:#fff;fill-opacity:1;fill-rule:nonzero;stroke:none;stroke-width:.205089" transform="matrix(1.72012 0 0 -1.72012 38.338 197.674)"/><path d="M0 0a1.329 1.329 0 1 1 0-2.658A1.329 1.329 0 0 1 0 0" clip-path="url(#cZ)" style="fill:#fff;fill-opacity:1;fill-rule:nonzero;stroke:none;stroke-width:.205089" transform="matrix(1.72012 0 0 -1.72012 284.008 176.18)"/><path d="M0 0a1.33 1.33 0 1 1 .001-2.66A1.33 1.33 0 0 1 0 0" clip-path="url(#da)" style="fill:#fff;fill-opacity:1;fill-rule:nonzero;stroke:none;stroke-width:.205089" transform="matrix(1.72012 0 0 -1.72012 281.798 187.044)"/><path d="M0 0a1.329 1.329 0 1 1 0-2.658A1.329 1.329 0 0 1 0 0" clip-path="url(#db)" style="fill:#fff;fill-opacity:1;fill-rule:nonzero;stroke:none;stroke-width:.205089" transform="matrix(1.72012 0 0 -1.72012 278.65 197.674)"/><path d="m0 0-7.397 2.619-.507-1.434 6.629-2.347-.829-2.339-2.77.981.572 1.617-1.595.565-.572-1.618-2.938 1.041-.507-1.434 9.545-3.38.508 1.433-.674.239L.517-1.086A.85.85 0 0 1 0 0" clip-path="url(#dc)" style="fill:#fff;fill-opacity:1;fill-rule:nonzero;stroke:none;stroke-width:.205089" transform="matrix(1.72012 0 0 -1.72012 124.795 271.776)"/><path d="M0 0c-.322-.908-1.33-1.379-2.253-1.052S-3.663.275-3.342 1.183c.322.908 1.33 1.379 2.253 1.052S.321.908 0 0m-.62 3.559c-1.728.612-3.599-.221-4.18-1.859-.58-1.639.35-3.464 2.078-4.076 1.729-.612 3.6.221 4.18 1.86.58 1.638-.35 3.463-2.078 4.075" clip-path="url(#dd)" style="fill:#fff;fill-opacity:1;fill-rule:nonzero;stroke:none;stroke-width:.205089" transform="matrix(1.72012 0 0 -1.72012 116.914 285.58)"/><path d="m0 0-6.098 4.938-.957-1.182L-1.589-.67l-1.508-1.862-6.021 4.875-.957-1.182 3.043-2.464-1.165-1.44-2.533 2.051-.957-1.182 5.554-4.498-1.783-2.201.633-.512a.85.85 0 0 1 1.196.126l1.669 2.061a.85.85 0 0 1-.125 1.196l-2.339 1.894 1.166 1.439 3.511-2.842.957 1.182-.556.45 1.93 2.382A.85.85 0 0 1 0 0" clip-path="url(#de)" style="fill:#fff;fill-opacity:1;fill-rule:nonzero;stroke:none;stroke-width:.205089" transform="matrix(1.72012 0 0 -1.72012 88.943 254.034)"/><path d="m0 0-.374-.609-6.709 4.111a.85.85 0 0 1-1.169-.281l-3.734-6.093 1.297-.795 3.308 5.399 6.138-3.761-.624-1.018-3.657 2.241-.854-1.395 3.656-2.241-.639-1.043-3.656 2.241-.855-1.395 3.657-2.24-.837-1.365 1.297-.795L1.297-.795z" clip-path="url(#df)" style="fill:#fff;fill-opacity:1;fill-rule:nonzero;stroke:none;stroke-width:.205089" transform="matrix(1.72012 0 0 -1.72012 276.613 221.216)"/><path d="m0 0-1.539-.553 1.217-3.39-1.016-.365-1.217 3.39-1.54-.552 2.367-6.593-3.6-1.292-1.805 5.026 2.287.821-.513 1.432-3.827-1.374 2.545-7.089a.85.85 0 0 1 1.088-.513l4.339 1.558 1.102-3.069.739.265a.85.85 0 0 1 .513 1.088L-.814-5.766l1.015.365 2.243-6.245.739.266a.85.85 0 0 1 .513 1.087z" clip-path="url(#dg)" style="fill:#fff;fill-opacity:1;fill-rule:nonzero;stroke:none;stroke-width:.205089" transform="matrix(1.72012 0 0 -1.72012 206.078 266.56)"/><path d="M0 0h-7.652v-1.521h6.847v-3.261h.812a.85.85 0 0 1 .85.852L.851-.849A.85.85 0 0 1 0 0" clip-path="url(#dh)" style="fill:#fff;fill-opacity:1;fill-rule:nonzero;stroke:none;stroke-width:.205089" transform="matrix(1.72012 0 0 -1.72012 164.832 288.336)"/><path d="M0 0h-1.665v-6.381h.814a.85.85 0 0 1 .851.85v1.809h1.422v1.55H0Z" clip-path="url(#di)" style="fill:#fff;fill-opacity:1;fill-rule:nonzero;stroke:none;stroke-width:.205089" transform="matrix(1.72012 0 0 -1.72012 166.31 276.287)"/><path d="m0 0-7.025-4.305.425-.694a.85.85 0 0 1 1.17-.281l3.029 1.857.743-1.213 1.322.81-.744 1.212L.87-1.419z" clip-path="url(#dj)" style="fill:#fff;fill-opacity:1;fill-rule:nonzero;stroke:none;stroke-width:.205089" transform="matrix(1.72012 0 0 -1.72012 60.725 224.309)"/><path d="m0 0-.869 1.418L-4-.5a.85.85 0 0 1-.281-1.169l3.998-6.525 1.297.795-3.573 5.83z" clip-path="url(#dk)" style="fill:#fff;fill-opacity:1;fill-rule:nonzero;stroke:none;stroke-width:.205089" transform="matrix(1.72012 0 0 -1.72012 45.689 223.3)"/><path d="M0 0c.725 0 1.313-.627 1.313-1.4 0-.774-.588-1.401-1.313-1.401s-1.313.627-1.313 1.401C-1.313-.627-.725 0 0 0m0-4.22c1.604 0 2.904 1.262 2.904 2.82 0 .614-.202 1.077-.546 1.411h.961v1.478H.86v.998H-.86v-.998h-2.459V.011h.961c-.344-.334-.546-.797-.546-1.411 0-1.558 1.3-2.82 2.904-2.82" clip-path="url(#dl)" style="fill:#fff;fill-opacity:1;fill-rule:nonzero;stroke:none;stroke-width:.205089" transform="matrix(1.72012 0 0 -1.72012 155.573 279.561)"/><path d="M0 0a.85.85 0 0 1-1.195.124l-5.947-4.816.957-1.182 5.322 4.31L1.19-4.099l.63.511a.85.85 0 0 1 .125 1.198z" clip-path="url(#dm)" style="fill:#fff;fill-opacity:1;fill-rule:nonzero;stroke:none;stroke-width:.205089" transform="matrix(1.72012 0 0 -1.72012 247.129 255.645)"/><path d="M0 0a.85.85 0 0 1 .126 1.196l-1.138 1.406 1.105.895-.975 1.204-1.105-.895-1.367 1.688-1.294-1.047L-.632-.512Z" clip-path="url(#dn)" style="fill:#fff;fill-opacity:1;fill-rule:nonzero;stroke:none;stroke-width:.205089" transform="matrix(1.72012 0 0 -1.72012 244.41 254.589)"/><path d="M0 0c-.564-.456-1.415-.339-1.902.262s-.424 1.458.139 1.915c.564.456 1.415.339 1.902-.262S.563.456 0 0m1.376 2.916c-.387.478-.836.709-1.313.753l.747.605-.93 1.149-1.911-1.548-.628.776-1.338-1.083.629-.776-1.911-1.547.93-1.149.747.605c-.057-.476.076-.963.464-1.441.98-1.21 2.785-1.373 4.031-.363 1.247 1.009 1.463 2.809.483 4.019" clip-path="url(#do)" style="fill:#fff;fill-opacity:1;fill-rule:nonzero;stroke:none;stroke-width:.205089" transform="matrix(1.72012 0 0 -1.72012 235.388 258.184)"/><path d="M0 0c-.379.618-.152 1.447.508 1.851.659.404 1.501.231 1.88-.388.379-.618.151-1.446-.508-1.851C1.221-.792.379-.618 0 0m2.711-1.745c.525.322.813.736.918 1.204l.503-.82 1.26.772-1.285 2.097.851.521-.899 1.467-.851-.521-1.285 2.097-1.261-.773.503-.82c-.464.119-.964.051-1.489-.271-1.328-.814-1.725-2.582-.886-3.95.838-1.367 2.593-1.816 3.921-1.003" clip-path="url(#dp)" style="fill:#fff;fill-opacity:1;fill-rule:nonzero;stroke:none;stroke-width:.205089" transform="matrix(1.72012 0 0 -1.72012 49.711 221.822)"/><path d="m0 0 2.752-1.273a1.299 1.299 0 0 1 1.185.053l1.604.927v-1.854c0-.418.205-.812.548-1.052l2.478-1.746 2.478 1.746c.342.24.546.634.546 1.052v1.854l1.605-.927a1.3 1.3 0 0 1 1.185-.053L17.133 0l-.274 3.02a1.29 1.29 0 0 1-.638.999l-1.605.927 1.605.926c.362.21.601.583.638 1l.274 3.019-2.752 1.274a1.3 1.3 0 0 1-1.185-.053l-1.605-.927v1.853c0 .418-.204.812-.545 1.054l-2.479 1.746-2.478-1.746a1.3 1.3 0 0 1-.548-1.054v-1.853l-1.604.927a1.29 1.29 0 0 1-1.185.053L0 9.891l.273-3.019c.037-.417.276-.79.639-1l1.604-.926-1.604-.927a1.28 1.28 0 0 1-.639-.999Z" clip-path="url(#dq)" style="fill:#fff;fill-opacity:1;fill-rule:nonzero;stroke:none;stroke-width:.205089" transform="matrix(1.72012 0 0 -1.72012 143.759 81.426)"/><path d="M0 0v2.92l2.528-1.46Z" clip-path="url(#dr)" style="fill:#1157a7;fill-opacity:1;fill-rule:nonzero;stroke:none;stroke-width:.205089" transform="matrix(1.72012 0 0 -1.72012 158.708 72.547)"/><path d="M0 0c0-.338-.165-.655-.441-.849l-2.211-1.559v5.936L0 1.997Z" clip-path="url(#ds)" style="fill:#1157a7;fill-opacity:1;fill-rule:nonzero;stroke:none;stroke-width:.205089" transform="matrix(1.72012 0 0 -1.72012 163.27 85.119)"/><path d="m0 0 2.211-1.558c.276-.196.441-.514.441-.851v-5.203L0-6.08Z" clip-path="url(#dt)" style="fill:#1157a7;fill-opacity:1;fill-rule:nonzero;stroke:none;stroke-width:.205089" transform="matrix(1.72012 0 0 -1.72012 158.708 56.574)"/><path d="M0 0v-2.92l-2.528 1.46z" clip-path="url(#du)" style="fill:#1157a7;fill-opacity:1;fill-rule:nonzero;stroke:none;stroke-width:.205089" transform="matrix(1.72012 0 0 -1.72012 158.282 67.525)"/><path d="m0 0-2.212 1.559c-.276.194-.44.511-.44.849v1.997L0 5.936Z" clip-path="url(#dv)" style="fill:#88abda;fill-opacity:1;fill-rule:nonzero;stroke:none;stroke-width:.205089" transform="matrix(1.72012 0 0 -1.72012 158.281 89.26)"/><path d="m0 0 2.211 1.558v-6.08L-.441-6.054v5.202c0 .338.165.656.441.852" clip-path="url(#dw)" style="fill:#88abda;fill-opacity:1;fill-rule:nonzero;stroke:none;stroke-width:.205089" transform="matrix(1.72012 0 0 -1.72012 154.478 59.254)"/><path d="m0 0 2.455-1.137-5.141-2.968v3.063l1.729.999C-.663.125-.306.141 0 0" clip-path="url(#dx)" style="fill:#008fd3;fill-opacity:1;fill-rule:nonzero;stroke:none;stroke-width:.205089" transform="matrix(1.72012 0 0 -1.72012 168.317 62.607)"/><path d="m0 0 .244 2.695c.031.337.223.638.515.807l4.507 2.601V3.04Z" clip-path="url(#dy)" style="fill:#008fd3;fill-opacity:1;fill-rule:nonzero;stroke:none;stroke-width:.205089" transform="matrix(1.72012 0 0 -1.72012 144.235 80.905)"/><path d="M0 0v2.92l2.528-1.46Z" clip-path="url(#dz)" style="fill:#008fd3;fill-opacity:1;fill-rule:nonzero;stroke:none;stroke-width:.205089" transform="matrix(1.72012 0 0 -1.72012 153.72 75.429)"/><path d="m0 0-2.528 1.46L0 2.921Z" clip-path="url(#dA)" style="fill:#008fd3;fill-opacity:1;fill-rule:nonzero;stroke:none;stroke-width:.205089" transform="matrix(1.72012 0 0 -1.72012 158.281 78.31)"/><path d="M0 0a1.04 1.04 0 0 0-.515-.807l-1.729-.998-2.653 1.532L.244 2.695z" clip-path="url(#dB)" style="fill:#6ec3ee;fill-opacity:1;fill-rule:nonzero;stroke:none;stroke-width:.205089" transform="matrix(1.72012 0 0 -1.72012 172.334 69.567)"/><path d="m0 0 2.652-1.532-4.505-2.601a1.04 1.04 0 0 0-.957-.043L-5.265-3.04Z" clip-path="url(#dC)" style="fill:#6ec3ee;fill-opacity:1;fill-rule:nonzero;stroke:none;stroke-width:.205089" transform="matrix(1.72012 0 0 -1.72012 153.506 76.045)"/><path d="M0 0v-2.92l-2.528 1.46z" clip-path="url(#dD)" style="fill:#00b3cd;fill-opacity:1;fill-rule:nonzero;stroke:none;stroke-width:.205089" transform="matrix(1.72012 0 0 -1.72012 163.27 70.406)"/><path d="M0 0v2.921L2.528 1.46Z" clip-path="url(#dE)" style="fill:#00b3cd;fill-opacity:1;fill-rule:nonzero;stroke:none;stroke-width:.205089" transform="matrix(1.72012 0 0 -1.72012 158.708 78.31)"/><path d="m0 0 5.265-3.04L2.81-4.176a1.04 1.04 0 0 0-.957.043l-4.505 2.601z" clip-path="url(#dF)" style="fill:#00b3cd;fill-opacity:1;fill-rule:nonzero;stroke:none;stroke-width:.205089" transform="matrix(1.72012 0 0 -1.72012 163.484 76.045)"/><path d="m0 0-2.653-1.532-1.729.998a1.04 1.04 0 0 0-.515.807l-.245 2.695z" clip-path="url(#dG)" style="fill:#00b3cd;fill-opacity:1;fill-rule:nonzero;stroke:none;stroke-width:.205089" transform="matrix(1.72012 0 0 -1.72012 153.08 70.037)"/><path d="m0 0 .244-2.695-1.749 1.01-3.516 2.03v3.063L-.515.807A1.04 1.04 0 0 0 0 0" clip-path="url(#dH)" style="fill:#91d2e5;fill-opacity:1;fill-rule:nonzero;stroke:none;stroke-width:.205089" transform="matrix(1.72012 0 0 -1.72012 172.334 76.269)"/><path d="M0 0c.306.141.663.125.957-.043l1.729-.999v-3.063l-5.142 2.968z" clip-path="url(#dI)" style="fill:#91d2e5;fill-opacity:1;fill-rule:nonzero;stroke:none;stroke-width:.205089" transform="matrix(1.72012 0 0 -1.72012 148.672 62.607)"/></g></svg>